<?xml version="1.0" standalone="no"?>
<!DOCTYPE svg PUBLIC "-//W3C//DTD SVG 1.1//EN" "http://www.w3.org/Graphics/SVG/1.1/DTD/svg11.dtd" >
<svg xmlns="http://www.w3.org/2000/svg">
<defs>
  <font id="cmegroup" horiz-adv-x="5000">
    <font-face font-family="cmegroup"
      units-per-em="1000" ascent="1000"
      descent="0" />
    <missing-glyph horiz-adv-x="0" />
    <glyph glyph-name="user"
      unicode="&#xE900;"
      horiz-adv-x="875" d="M814.4921874999999 319.6165625C807.1484374999999 326.4396875000001 799.5965625 332.8978125000001 791.8359374999999 338.9915625000001H794.7528124999999C728.2965624999999 403.3665625 594.1278125 447.8978125000001 437.5153125 447.8978125000001C280.9528125 447.8978125000001 146.7840625 403.3665625 80.3278125 338.9915625000001H83.2446874999999C75.4321874999999 332.8978125000001 67.8803125 326.3871875000001 60.5365625 319.5646875000001C34.9634375 295.7103125000001 20.8490624999999 261.4915625000001 20.8490624999999 226.2334375000002L20.9009374999999 31.2334375H854.1509375V226.2334375000002C854.1509375 261.5459375000002 840.0365625 295.7646875000002 814.4634375 319.6209375000001M437.5296874999999 528.3478125C541.0734374999998 528.3478125 625.0296874999998 626.9415625 625.0296874999998 748.6103125C625.0296874999998 870.1728125 589.5090624999999 968.7665625 437.5296874999999 968.7665625C285.5484374999998 968.7665625 250.0296874999998 870.1728125 250.0296874999998 748.6103125C250.0296874999998 626.9415625 333.9859374999999 528.3478125 437.5296874999999 528.3478125" />
    <glyph glyph-name="search"
      unicode="&#xE901;"
      horiz-adv-x="1000" d="M698.7824999999999 391.9624999999999L999.9975 90.7475L909.2625 0.0125L608.0475 301.2275C457.7075 194.0825 247.6375000000001 207.9525 112.7575000000001 342.8325C-37.5824999999999 493.1725 -37.5824999999999 736.9175 112.7575000000001 887.2325000000001C263.0975000000001 1037.5725 506.8425 1037.5725 657.1575000000001 887.2325000000001C792.0375 752.3525000000001 805.9075 542.2825 698.7625000000002 391.9425000000001zM203.4924999999999 433.5674999999999C303.7174999999999 333.3424999999999 466.2174999999999 333.3424999999999 566.4425 433.5674999999999C666.6674999999999 533.7924999999998 666.6674999999999 696.2924999999998 566.4425 796.5174999999999C466.2174999999999 896.7424999999998 303.7174999999999 896.7424999999998 203.4924999999999 796.5174999999999S103.2674999999999 533.7924999999998 203.4924999999999 433.5674999999999z" />
    <glyph glyph-name="bell"
      unicode="&#xE902;"
      horiz-adv-x="888.8888888888889" d="M861.0194444444445 230.8805364806312L853.7972222222222 237.4083142584089L722.225 368.9360920361867V630.6472031472979C722.225 753.7027587028533 642.0861111111111 857.9138698139645 531.2083333333334 894.3527587028534V910.0472031472978C531.1155555555556 957.9638698139644 492.2266666666667 996.758314258409 444.3083333333334 996.7138698139644C396.4844444444446 996.6210920361866 357.6861111111112 957.8710920361866 357.6416666666667 910.0472031472978V894.2599809250755C246.7638888888889 857.778314258409 166.6694444444445 753.5210920361867 166.6694444444445 630.465536480631V368.9377587028534L36.8527777777778 239.1210920361867L27.6861111111111 230.8805364806312V173.8416475917423H861.0194444444445V229.9527587028534H861.2027777777778L861.0194444444445 230.1360920361867zM444.3972222222223 3.2860920361867C509.5805555555556 3.2860920361867 562.4083333333334 56.1099809250756 562.4083333333334 121.2472031472979H326.4361111111112C326.4361111111112 56.1083142584089 379.2600000000001 3.2860920361867 444.3972222222223 3.2860920361867z" />
    <glyph glyph-name="chevron-up"
      unicode="&#xE903;"
      horiz-adv-x="1000" d="M500 617.99L89.39 200L0 291L500 800L1000 291L910.61 200z" />
    <glyph glyph-name="chevron-down"
      unicode="&#xE904;"
      horiz-adv-x="1000" d="M500 382.01L89.39 800L0 709L500 200L1000 708.9999999999999L910.61 800z" />
    <glyph glyph-name="chevron-left"
      unicode="&#xE905;"
      horiz-adv-x="562.5" d="M478.01125 1000L562.5 911.5625L168.976875 500L562.5 88.375L478.01125 0L0 500z" />
    <glyph glyph-name="chevron-right"
      unicode="&#xE906;"
      horiz-adv-x="562.5" d="M84.48875 1000L0 911.5625L393.523125 500L0 88.375L84.48875 0L562.5 500z" />
    <glyph glyph-name="briefcase"
      unicode="&#xE907;"
      horiz-adv-x="1000" d="M603.6244444444444 708.0294444444444H395.1077777777778L394.83 813.723888888889H603.3466666666667zM916.68 708.1222222222223H708.1133333333333L708.2966666666666 843.0777777777778C708.2966666666666 883.911111111111 675.8427777777778 916.6888888888888 634.73 916.6888888888888H365.1466666666667C323.9894444444444 916.6888888888888 291.58 883.911111111111 291.58 843.0777777777778L291.6261111111111 708.1222222222223H83.3372222222222C42.2261111111111 708.1222222222223 9.6316666666666 675.3444444444444 9.6316666666666 634.5111111111112L9.2611111111111 156.9666666666667C9.2611111111111 116.0872222222223 42.2238888888888 83.3111111111111 83.3333333333333 83.3111111111111H916.6666666666666C957.7777777777778 83.3111111111111 990.738888888889 116.0888888888889 990.738888888889 156.9666666666668V634.5111111111112C990.738888888889 675.3444444444444 957.776111111111 708.1222222222223 916.6666666666666 708.1222222222223z" />
    <glyph glyph-name="share"
      unicode="&#xE908;"
      horiz-adv-x="888.8888888888889" d="M740.7416666666668 299.8802777777779C703.2105555555556 299.8802777777779 669.6305555555557 285.3080555555557 643.9527777777779 262.4791666666667L291.8527777777778 464.0569444444445C294.3216666666667 475.2286111111112 296.2972222222222 486.4008333333334 296.2972222222222 498.0580555555555S294.3222222222223 520.8875 291.8527777777778 532.0591666666667L640.0027777777779 731.6924999999999C666.6694444444446 707.4058333333332 701.7305555555557 692.3480555555554 740.7416666666668 692.3480555555554C822.7194444444445 692.3480555555554 888.8916666666668 757.4369444444444 888.8916666666668 838.0702777777778S822.7194444444445 983.7925 740.7416666666668 983.7925C658.763888888889 983.7925 592.5916666666667 918.703611111111 592.5916666666667 838.0702777777778C592.5916666666667 826.4125000000001 594.5666666666667 815.2408333333333 597.0361111111112 804.0691666666667L248.8861111111111 604.4358333333332C222.2194444444444 628.7225000000001 187.1583333333333 643.7802777777777 148.1472222222222 643.7802777777777C66.1694444444444 643.7802777777777 -0.0027777777778 578.6913888888889 -0.0027777777778 498.0580555555555S66.1694444444444 352.3358333333333 148.1472222222222 352.3358333333333C187.1594444444444 352.3358333333333 222.2194444444444 367.393611111111 248.8861111111111 391.6802777777777L600.4916666666667 189.613611111111C598.0227777777778 179.4130555555555 596.541111111111 168.7269444444443 596.541111111111 158.0408333333332C596.541111111111 79.8408333333331 661.23 16.2074999999999 740.7411111111111 16.2074999999999S884.9411111111111 79.8408333333331 884.9411111111111 158.0408333333333S820.2522222222223 299.8741666666667 740.7411111111111 299.8741666666667z" />
    <glyph glyph-name="print"
      unicode="&#xE909;"
      horiz-adv-x="1000" d="M149.99375 656.1968750000001C67.00625 656.1968750000001 0 589.1906250000002 0 506.203125V213.090625H187.48125V0.053125H812.3375V213.090625H1000V506.203125C1000 589.190625 932.99375 656.1968750000001 850.0062499999999 656.1968750000001zM302.88125 374.9468750000001H697.03125V109.321875H302.88125zM812.5 999.946875H189.65625L187.4975 749.9468750000001H810.3412500000001z" />
    <glyph glyph-name="plus"
      unicode="&#xE90A;"
      horiz-adv-x="1000" d="M571.4285714285714 571.4285714285714H1000V428.5714285714286H571.4285714285714V0H428.5714285714286V428.5714285714286H0V571.4285714285714H428.5714285714286V1000H571.4285714285714z" />
    <glyph glyph-name="plus-bold"
      unicode="&#xE90B;"
      horiz-adv-x="1000" d="M600 600H1000V400H600V0H400V400H0V600H400V1000H600z" />
    <glyph glyph-name="minus"
      unicode="&#xE90C;"
      horiz-adv-x="875" d="M781.25 437.5H93.75C59.19921875 437.5 31.25 465.46875 31.25 500.01953125S59.19921875 562.5 93.75 562.5H781.25C815.80078125 562.5 843.75 534.5703125 843.75 500.01953125S815.8203125 437.5 781.25 437.5z" />
    <glyph glyph-name="minus-bold"
      unicode="&#xE90D;"
      horiz-adv-x="1000" d="M0 600L1000 600L1000 400L0 400z" />
    <glyph glyph-name="more-vertical"
      unicode="&#xE90E;"
      horiz-adv-x="230.76923076923077" d="M0 878.7846153846153C0 941.5446153846154 51.6592307692308 992.423076923077 115.3846153846154 992.423076923077S230.7692307692308 941.5461538461539 230.7692307692308 878.7846153846153C230.7692307692308 816.0246153846153 179.11 765.1461538461538 115.3846153846154 765.1461538461538S0 816.0230769230769 0 878.7846153846153zM0 500C0 562.76 51.6592307692308 613.6384615384615 115.3846153846154 613.6384615384615S230.7692307692308 562.7615384615383 230.7692307692308 500S179.11 386.3615384615385 115.3846153846154 386.3615384615385S0 437.2384615384616 0 500zM0 121.2153846153846C0 183.9753846153846 51.6592307692308 234.853846153846 115.3846153846154 234.853846153846S230.7692307692308 183.976923076923 230.7692307692308 121.2153846153846C230.7692307692308 58.4553846153846 179.11 7.5769230769231 115.3846153846154 7.5769230769231S0 58.4538461538461 0 121.2153846153846z" />
    <glyph glyph-name="menu-close"
      unicode="&#xE90F;"
      horiz-adv-x="1000" d="M500 601.0142857142857L853.55 954.5642857142856L954.5642857142856 853.55L601.0142857142856 500L954.5642857142856 146.4499999999999L853.55 45.4357142857143L500 398.9857142857144L146.45 45.4357142857143L45.4357142857143 146.4499999999999L398.9857142857143 500L45.4357142857143 853.55L146.45 954.5642857142856z" />
    <glyph glyph-name="menu"
      unicode="&#xE910;"
      horiz-adv-x="1000" d="M0 875H1000V750H0V875zM0 562.5H1000V437.5H0V562.5zM0 250H1000V125H0V250z" />
    <glyph glyph-name="arrow-down"
      unicode="&#xE911;"
      horiz-adv-x="1000" d="M571.5000000000001 273.5357142857143L571.5000000000001 999.9642857142858L428.4285714285714 999.9642857142858L428.4285714285714 273.5357142857143L100.9285714285715 601.0357142857142L0 500.0357142857143L500.0000000000001 0.0357142857143L1000 500.0357142857144L899.0000000000001 601.0357142857142z" />
    <glyph glyph-name="arrow-right"
      unicode="&#xE912;"
      horiz-adv-x="1000" d="M726.4642857142858 571.5L0.0357142857143 571.5L0.0357142857143 428.4285714285714L726.4642857142858 428.4285714285714L398.9642857142857 100.9285714285715L499.9642857142857 0L999.9642857142858 500L499.9642857142857 1000L398.9642857142857 899z" />
    <glyph glyph-name="arrow-right-bold"
      unicode="&#xE913;"
      horiz-adv-x="1000" d="M882.1249999999959 617.9583333333366L500.0416666666625 1000.0416666666634L499.9583333333292 1000.0416666666634L382.2083333333292 882.2083333333366L681.0416666666625 583.2916666666698L0.0416666666709 583.3750000000032L0.0416666666709 416.7083333333366L681.0416666666625 416.7083333333366L382.2083333333292 117.7916666666699L500.0416666666625 -0.0416666666634L942.3749999999958 442.4583333333366L999.9583333333292 500.0416666666698L899.8749999999958 600.1250000000031z" />
    <glyph glyph-name="arrow-right-thin"
      unicode="&#xE914;"
      horiz-adv-x="1000" d="M787.2777777777777 555.5555555555555L0 555.5555555555555L0 444.4444444444445L787.2777777777777 444.4444444444445L421.5 78.5555555555557L500.0555555555555 0L1000 500L500 1000L421.4444444444445 921.388888888889z" />
    <glyph glyph-name="arrow-up"
      unicode="&#xE915;"
      horiz-adv-x="1000" d="M571.5000000000001 726.4642857142856L571.5000000000001 0.0357142857143L428.4285714285714 0.0357142857143L428.4285714285714 726.4642857142856L100.9285714285715 398.9642857142857L0 499.9642857142857L500 999.9642857142858L1000 499.9642857142857L899 398.9642857142857z" />
    <glyph glyph-name="positive"
      unicode="&#xE916;"
      horiz-adv-x="1000" d="M680 812.62L0 132.62L132.5 0L812.6200000000001 679.88L812.6200000000001 250.12L1000 250.12L1000 1000L250 1000L250 812.62z" />
    <glyph glyph-name="thumbnails-list"
      unicode="&#xE917;"
      horiz-adv-x="1000" d="M265.6178125 734.375L265.6178125 968.75L31.2446875 968.75L31.2446875 734.375zM265.6178125 382.8125L265.6178125 617.1875L31.2446875 617.1875L31.2446875 382.8125zM265.6178125 31.25L265.6178125 265.625L31.2446875 265.625L31.2446875 31.25zM617.1803124999999 734.375L617.1803124999999 968.75L382.8053125 968.75L382.8053125 734.375zM617.1803124999999 382.8125L617.1803124999999 617.1875L382.8053125 617.1875L382.8053125 382.8125zM617.1803124999999 31.25L617.1803124999999 265.625L382.8053125 265.625L382.8053125 31.25zM968.7553125 734.375L968.7553125 968.75L734.3803125 968.75L734.3803125 734.375zM968.7553125 382.8125L968.7553125 617.1875L734.3803125 617.1875L734.3803125 382.8125zM968.7553125 31.25L968.7553125 265.625L734.3803125 265.625L734.3803125 31.25z" />
    <glyph glyph-name="dropdown"
      unicode="&#xE918;"
      horiz-adv-x="1000" d="M0 750L500 250L1000 750z" />
    <glyph glyph-name="chat"
      unicode="&#xE919;"
      horiz-adv-x="1000" d="M428.5714285714286 214.2857142857142L214.2857142857143 0V214.2857142857142H142.8571428571429C63.9571428571429 214.2857142857142 0 278.2449999999999 0 357.1428571428571V857.1428571428571C0 936.0428571428572 63.9592857142857 1000 142.8571428571429 1000H857.1428571428571C936.042857142857 1000 1000 936.0407142857144 1000 857.1428571428571V357.1428571428571C1000 278.2428571428572 936.0407142857144 214.2857142857142 857.1428571428571 214.2857142857142zM214.2857142857143 785.7142857142858V714.2857142857142H785.7142857142858V785.7142857142858zM214.2857142857143 642.8571428571429V571.4285714285714H642.8571428571429V642.8571428571429zM214.2857142857143 500V428.5714285714286H714.2857142857143V500z" />
    <glyph glyph-name="envelope"
      unicode="&#xE91A;"
      horiz-adv-x="1000" d="M984.38125 852.88625L500.3249999999999 550.6112499999999L16.0999999999999 852.99875C33.7112499999999 880.943125 64.5443749999999 899.77625 99.9312499999999 899.77625H900.05625C935.5562499999997 899.77625 966.66875 880.8874999999999 984.3875 852.8874999999999zM0.50625 745.7800000000001L500.3375 433.6112500000001L1000.00625 745.6675V200.1675C1000.00625 145.22375 955.0625000000002 100.22375 900.0625 100.22375H99.9375C44.993125 100.22375 -0.00625 145.22375 -0.00625 200.1675z" />
    <glyph glyph-name="check"
      unicode="&#xE91B;"
      horiz-adv-x="1000" d="M882.2499999999999 875.0008333333333L714.5833333333333 704.1508333333334L382.1666666666667 365.3425L253.25 496.6841666666667L117.9166666666667 634.6508333333334L0 514.6091666666666V514.5241666666666L382.1666666666668 124.9991666666667L1000 754.7825V754.9525000000001z" />
    <glyph glyph-name="list"
      unicode="&#xE91C;"
      horiz-adv-x="1000" d="M0 857.1428571428571H1000V714.2857142857142H0zM0 571.4285714285714H1000V428.5714285714286H0zM0 285.7142857142857H571.4285714285714V142.8571428571429H0z" />
    <glyph glyph-name="lock"
      unicode="&#xE91D;"
      horiz-adv-x="833.3333333333333" d="M416.6670833333332 1000.0000000000002C554.7337499999999 1000.0000000000002 666.6670833333332 888.0666666666668 666.6670833333332 750.0000000000001V583.3333333333335H729.1670833333332C732.7262499999998 583.3333333333335 736.2587499999998 583.1716666666667 739.7629166666665 582.8475000000002C743.2670833333332 582.5241666666669 746.7295833333333 582.0400000000002 750.1504166666666 581.3950000000001C753.57125 580.7508333333336 756.9362499999999 579.9483333333335 760.2454166666666 578.9875000000002C763.5545833333332 578.026666666667 766.7945833333333 576.9125000000003 769.9654166666667 575.6441666666668C773.13625 574.3758333333335 776.2254166666667 572.9591666666669 779.2320833333333 571.3933333333335C782.23875 569.8275000000002 785.1504166666667 568.1191666666668 787.9679166666666 566.2683333333335C790.7854166666667 564.4175000000002 793.4979166666666 562.431666666667 796.10375 560.3116666666668C798.7095833333333 558.1908333333336 801.1995833333333 555.9441666666669 803.5720833333334 553.5716666666669C805.9445833333334 551.1983333333336 808.19125 548.7091666666669 810.3120833333334 546.1033333333336C812.4329166666666 543.4975000000003 814.4179166666668 540.7850000000003 816.26875 537.9675000000003C818.1195833333333 535.1500000000003 819.8279166666666 532.2375000000003 821.3937500000001 529.2308333333336C822.9595833333333 526.2250000000003 824.3770833333334 523.1358333333336 825.6454166666666 519.9650000000003C826.9137499999999 516.7941666666669 828.0279166666667 513.5541666666669 828.9879166666667 510.2450000000003C829.94875 506.9358333333336 830.75125 503.5708333333336 831.39625 500.1500000000003C832.0404166666667 496.729166666667 832.5245833333335 493.2658333333337 832.8479166666666 489.7616666666669C833.1720833333334 486.2575000000003 833.33375 482.7258333333336 833.33375 479.166666666667V104.166666666667C833.33375 100.6058333333336 833.1720833333334 97.0750000000003 832.8479166666666 93.5750000000003C832.5245833333333 90.0691666666669 832.0404166666666 86.6058333333336 831.39625 83.1833333333335C830.75125 79.7608333333336 829.94875 76.3975000000003 828.9879166666667 73.0916666666669C828.0279166666667 69.7808333333335 826.91375 66.5391666666668 825.6454166666666 63.3666666666669C824.3770833333334 60.1941666666669 822.9595833333333 57.1058333333336 821.3937500000001 54.1000000000003C819.8279166666667 51.0941666666669 818.1195833333335 48.1833333333335 816.26875 45.3666666666668C814.4179166666668 42.5500000000002 812.4329166666666 39.8391666666668 810.3120833333334 37.2333333333335C808.1912500000001 34.6275000000002 805.9445833333334 32.1358333333334 803.5720833333334 29.7583333333334C801.1995833333333 27.3858333333334 798.7095833333333 25.1416666666668 796.10375 23.0250000000001C793.4979166666667 20.9025 790.7854166666667 18.9166666666667 787.9679166666666 17.0666666666667C785.1504166666666 15.2166666666667 782.23875 13.5083333333334 779.2320833333333 11.9416666666667C776.2254166666667 10.375 773.13625 8.9583333333334 769.9654166666667 7.6916666666667C766.7945833333333 6.4191666666667 763.5545833333332 5.3025 760.2454166666666 4.3416666666666C756.93625 3.3858333333334 753.57125 2.5858333333333 750.1504166666666 1.9416666666666C746.7295833333333 1.2974999999999 743.2670833333333 0.8108333333333 739.7629166666665 0.4833333333332C736.2587499999998 0.1608333333334 732.7262499999998 -1e-13 729.1670833333332 -1e-13H104.1670833333332C100.6079166666665 -1e-13 97.0754166666665 0.1608333333332 93.5712499999999 0.4833333333332C90.0670833333332 0.8108333333333 86.6045833333332 1.2974999999999 83.1837499999999 1.9416666666666C79.7629166666665 2.5858333333333 76.3979166666665 3.3858333333333 73.0887499999999 4.3416666666666C69.7795833333332 5.3025 66.5395833333332 6.4191666666666 63.3687499999999 7.6916666666667C60.1979166666665 8.9583333333334 57.1095833333332 10.375 54.1029166666665 11.9416666666667C51.0962499999999 13.5083333333334 48.1837499999999 15.2166666666667 45.3662499999999 17.0666666666667C42.5487499999999 18.9166666666667 39.8362499999999 20.9025 37.2304166666665 23.0250000000001C34.6245833333332 25.1416666666668 32.1354166666665 27.3858333333334 29.7620833333332 29.7583333333334C27.3895833333332 32.1358333333334 25.1429166666665 34.6275000000001 23.0220833333332 37.2333333333335C20.9012499999999 39.8391666666668 18.9162499999999 42.5500000000002 17.0654166666665 45.3666666666668C15.2145833333332 48.1833333333334 13.5062499999999 51.0941666666669 11.9404166666665 54.1000000000003C10.3745833333332 57.1058333333336 8.9570833333332 60.1941666666669 7.6887499999999 63.3666666666669C6.4204166666665 66.5391666666668 5.3062499999999 69.7808333333335 4.3454166666665 73.0916666666669C3.3845833333332 76.3975000000002 2.5820833333332 79.7608333333336 1.9379166666665 83.1833333333335C1.2929166666665 86.6058333333335 0.8087499999999 90.0691666666669 0.4854166666665 93.5750000000003C0.1620833333332 97.0750000000003 -0.0004166666668 100.6058333333336 -0.0004166666668 104.166666666667V479.166666666667C-0.0004166666668 482.7258333333336 0.1612499999999 486.2575000000003 0.4854166666665 489.7616666666669C0.8087499999999 493.2658333333336 1.2929166666665 496.729166666667 1.9379166666665 500.1500000000003C2.5829166666665 503.5708333333337 3.3854166666665 506.9358333333337 4.3454166666665 510.2450000000003C5.3062499999999 513.5541666666669 6.4204166666665 516.7941666666669 7.6887499999999 519.9650000000003C8.9570833333332 523.1358333333336 10.3745833333332 526.2250000000003 11.9404166666665 529.2308333333336C13.5062499999999 532.2375000000003 15.2145833333332 535.1500000000003 17.0654166666665 537.9675000000003C18.9162499999999 540.7850000000003 20.9020833333332 543.4975000000003 23.0220833333332 546.1033333333336C25.1429166666665 548.7091666666669 27.3895833333332 551.1983333333336 29.7620833333332 553.5716666666669C32.1345833333332 555.944166666667 34.6245833333332 558.1908333333337 37.2304166666665 560.3116666666668C39.8362499999999 562.431666666667 42.5479166666665 564.4175000000002 45.3662499999999 566.2683333333335C48.1837499999999 568.119166666667 51.0962499999999 569.8275000000002 54.1029166666665 571.3933333333335C57.1095833333332 572.9591666666669 60.1979166666665 574.3758333333336 63.3687499999999 575.6441666666668C66.5395833333332 576.9125000000003 69.7795833333332 578.026666666667 73.0887499999999 578.9875000000002C76.3979166666665 579.9483333333335 79.7629166666665 580.7508333333336 83.1837499999999 581.3950000000001C86.6045833333332 582.0400000000002 90.0670833333332 582.5241666666669 93.5712499999999 582.8475000000002C97.0754166666665 583.1716666666669 100.6079166666665 583.3333333333335 104.1670833333332 583.3333333333335H166.6670833333332V750.0000000000001C166.6670833333332 888.0666666666668 278.6004166666665 1000.0000000000002 416.6670833333332 1000.0000000000002zM270.8337499999999 583.3333333333335H562.5004166666665V750.0000000000001C562.5004166666665 830.5416666666667 497.2087499999998 895.8333333333335 416.6670833333332 895.8333333333335C336.1254166666665 895.8333333333335 270.8337499999999 830.5416666666667 270.8337499999999 750.0000000000001z" />
    <glyph glyph-name="mic"
      unicode="&#xE91E;"
      horiz-adv-x="785.7142857142858" d="M392.8571428571429 312.5C495.9857142857143 312.5 580.3571428571429 396.8714285714286 580.3571428571429 500V812.5C580.3571428571429 915.6285714285714 495.9857142857143 1000 392.8571428571429 1000S205.3571428571429 915.6285714285714 205.3571428571429 812.5V500C205.3571428571429 396.8714285714286 289.7285714285715 312.5 392.8571428571429 312.5M642.8571428571429 593.75V500C642.8571428571429 362.4999999999999 530.3571428571429 250 392.8571428571429 250S142.8571428571429 362.4999999999999 142.8571428571429 500V593.75H17.8571428571429V500C17.8571428571429 315.6285714285715 152.2285714285715 159.3714285714286 330.3571428571429 131.25V0H455.3571428571429V131.25C633.4857142857144 162.5 767.8571428571429 315.6214285714286 767.8571428571429 500V593.75z" />
    <glyph glyph-name="money"
      unicode="&#xE91F;"
      horiz-adv-x="545.4545454545455" d="M545.4545454545455 343.7445454545454C545.4545454545455 224.3263636363637 466.58 142.8536363636365 339.9363636363637 124.9990909090909V-0.0009090909091H223.2909090909091V124.9990909090909C142.1945454545455 137.2754545454545 65.5454545454545 174.1063636363636 0 238.8354545454545L91.0909090909091 348.2081818181818C153.3009090909091 289.0563636363637 228.8454545454546 262.2700000000001 288.8363636363636 262.2700000000001C344.3818181818182 262.2700000000001 381.0454545454545 289.0563636363637 381.0454545454545 332.5827272727273C381.0454545454545 380.5736363636364 345.4963636363636 402.8954545454546 254.4 429.6827272727273C128.8727272727272 468.7454545454546 17.7727272727272 511.1563636363637 17.7727272727272 652.9009090909092C17.7727272727272 766.7372727272727 92.2036363636363 852.6736363636364 223.290909090909 868.300909090909V1000.000909090909H339.9363636363636V861.6100000000001C408.8127272727272 847.1009090909092 478.7999999999999 814.7345454545455 528.7909090909089 774.5563636363636L441.0290909090909 664.0654545454547C378.8190909090909 707.5918181818183 318.8290909090909 726.5654545454547 269.9472727272727 726.5654545454547C213.2909090909091 726.5654545454547 181.0745454545454 703.1272727272728 181.0745454545454 662.949090909091C181.0745454545454 621.6545454545455 218.8454545454545 600.449090909091 298.8290909090909 574.7790909090911C447.6927272727272 530.1363636363637 545.4472727272727 491.0745454545455 545.4472727272727 343.7518181818183z" />
    <glyph glyph-name="percentage"
      unicode="&#xE920;"
      horiz-adv-x="1000" d="M410.5607142857142 178.5696428571429L328.6464285714285 214.6660714285714L591.9464285714284 821.4303571428571L673.8607142857143 785.3339285714286zM275.1535714285714 473.3553571428572C182.375 473.3553571428572 107.1464285714285 542.1096428571428 107.1464285714285 645.2410714285716C107.1464285714285 738.9196428571429 174.8514285714285 815.4125 275.1535714285714 815.4125C368.7678571428571 815.4125 443.9964285714285 747.5167857142858 443.9964285714285 645.2410714285716C443.9964285714285 550.7053571428571 376.2914285714286 473.3553571428572 275.1535714285714 473.3553571428572zM358.7392857142857 644.3839285714287C358.7392857142857 593.6775 325.305 553.2839285714285 275.9892857142857 553.2839285714285C230.8521428571428 553.2839285714285 194.075 590.2396428571428 194.075 644.3839285714287C194.075 694.2310714285715 227.51 734.6267857142857 275.9892857142857 734.6267857142857C321.9621428571428 734.6267857142857 358.7392857142857 698.5303571428572 358.7392857142857 644.3839285714287zM724.0107142857144 191.4625000000001C632.0678571428571 191.4625000000001 556.0035714285714 260.2175 556.0035714285714 362.4910714285716C556.0035714285714 456.169642857143 623.7085714285715 533.519642857143 724.0107142857144 533.519642857143C817.625 533.519642857143 892.8535714285715 464.7646428571429 892.8535714285715 362.4910714285716C892.8535714285715 268.8125000000001 825.9821428571429 191.4625000000001 724.0107142857144 191.4625000000001zM807.5964285714285 361.6339285714287C807.5964285714285 311.7867857142858 774.1621428571427 271.3910714285714 724.8464285714285 271.3910714285714C679.71 271.3910714285714 642.9321428571427 307.4867857142858 642.9321428571427 361.6339285714287C642.9321428571427 411.4817857142858 675.5314285714285 451.8767857142858 724.8464285714285 451.8767857142858C770.8192857142858 451.8767857142858 807.5964285714285 415.7810714285715 807.5964285714285 361.6339285714287z" />
    <glyph glyph-name="play"
      unicode="&#xE921;"
      horiz-adv-x="909.090909090909" d="M108.489318181818 946.507552960076L867.5711363636364 566.9711893237122C922.7511363636364 539.3311893237124 922.7511363636364 460.5166438691669 867.5711363636364 432.9802802328032L108.4893181818181 53.4439165964397C58.718409090909 28.6102802328033 0.1347727272727 64.7602802328033 0.1347727272727 120.4393711418943V879.5211893237124C0.1347727272727 935.2002802328034 58.718409090909 971.4484620509852 108.4893181818181 946.516643869167" />
    <glyph glyph-name="settings"
      unicode="&#xE922;"
      horiz-adv-x="1000" d="M840 673.468125L860 612.24375L1000 561.223125V448.979375C1000 438.7756250000001 860 387.755 860 387.755L840 326.53125C840 326.53125 899.9999999999999 193.875 890 183.675L820.0000000000001 112.24375C810 102.0437499999999 680 163.2624999999999 680 163.2624999999999L610.0000000000001 142.8562499999999L560 0H450C440 0 390 132.6499999999999 390 132.6499999999999L320 163.2624999999999L190 102.0437499999999L110 183.675C100 193.875 160 326.53125 160 326.53125L140 387.755L0 438.7756250000001V551.019375C0 561.2231250000001 140 612.24375 140 612.24375L160 673.468125C160 673.468125 100 806.1181250000001 110 816.324375L180 887.755625C190 897.96 320 836.735625 320 836.735625L390 857.1437500000001L440 1000H550C560 1000 610.0000000000001 867.35 610.0000000000001 867.35L680.0000000000001 836.738125L810.0000000000001 897.9625L890.0000000000001 816.3312500000001C900.0000000000001 806.1275 840.0000000000001 673.475 840.0000000000001 673.475zM499.9999999999999 336.7368750000001C590 336.7368750000001 660 408.161875 660 499.999375C660 591.8368750000001 590.0000000000001 663.261875 499.9999999999999 663.261875C410 663.261875 339.9999999999999 591.8306249999999 339.9999999999999 499.999375C339.9999999999999 408.1681249999999 410 336.7368750000001 499.9999999999999 336.7368750000001z" />
    <glyph glyph-name="windows"
      unicode="&#xE923;"
      horiz-adv-x="1000" d="M335.6428571428572 928.5717857142856H950.0714285714286C977.6428571428572 928.5717857142856 1000 905.4317857142858 1000 876.8946428571428V388.7374999999999C1000 360.2746428571428 977.6428571428572 337.1339285714285 950.0714285714286 337.1339285714285H714.2857142857143V123.1053571428572C714.2857142857143 94.5696428571429 691.9285714285714 71.4267857142857 664.3571428571429 71.4267857142857H49.9285714285714C22.3571428571429 71.4267857142857 0 94.5696428571429 0 123.1053571428572V611.1910714285714C0 639.7275 22.3571428571429 662.8675000000001 49.9285714285714 662.8675000000001H285.7142857142857V876.8960714285713C285.7142857142857 905.4332142857141 308.0714285714286 928.5732142857144 335.6428571428572 928.5732142857144zM375 429.5432142857143H910.7142857142858V836.1575H375zM625 337.1332142857143H335.6428571428572C308.0714285714286 337.1332142857143 285.7142857142857 360.2732142857143 285.7142857142857 388.7360714285714V570.4575H89.2857142857143V163.8432142857143H625z" />
    <glyph glyph-name="expand"
      unicode="&#xE924;"
      horiz-adv-x="1000" d="M151.0845 448.94V151.0899999999999H215.5395V338.49L423.7445 130.285L469.7405 176.281L261.5355 384.4860000000001H448.9355V391.9080000000002V448.9380000000001H151.0855zM576.2595 869.715L530.361 823.719L738.466 615.514H551.0659999999999V551.059H558.5854999999999H848.9155000000001V848.909H784.4605V661.509L576.2555000000001 869.714z" />
    <glyph glyph-name="show-all"
      unicode="&#xE925;"
      horiz-adv-x="666.6666666666666" d="M58.4325 999.7547416666666L4.2333333333333 946.3697416666666L333.3333333333333 612.7114083333333L662.4333333333333 946.3697416666666L608.2341666666666 999.7547416666666L333.3341666666667 720.7797416666666zM58.4325 387.2885916666667L4.2333333333333 333.9035916666667L333.3333333333333 0.2452583333334L662.4333333333333 333.9035916666667L608.2341666666666 387.2885916666667L333.3341666666667 108.4802583333333z" />
    <glyph glyph-name="facebook"
      unicode="&#xE926;"
      horiz-adv-x="1000" d="M448.525 308.83875V492.37875H399.995V558.4637499999999H448.525V614.90625C448.525 659.26125 477.1924999999999 699.98875 543.2449999999999 699.98875C569.99 699.98875 589.77 697.4247499999999 589.77 697.4247499999999L588.208 635.7147499999999S568.0384999999999 635.9097499999999 546.0279999999999 635.9097499999999C522.207 635.9097499999999 518.3905 624.9334999999999 518.3905 606.7122499999999V558.45975H590.1005L586.98025 492.3747499999999H518.3902499999999V308.83475H448.52025zM500 995.35C226.7 995.35000025 4.65 773.2750000000001 4.65 500C4.65 226.7 226.725 4.65 500 4.65C773.3000000000001 4.65 995.35 226.725 995.35 500C995.35 773.3 773.275 995.35 500 995.35zM500 948.1325C747.7925 948.1325025 948.15 747.79 948.15 499.9825C948.15 252.1900000000001 747.8075 51.8325000000001 500.0000000000001 51.8325000000001C252.2075000000001 51.8325000000001 51.8500000000001 252.1750000000001 51.8500000000001 499.9825C51.8500000000001 747.7750000000001 252.1925000000001 948.1325 500.0000000000001 948.1325z" />
    <glyph glyph-name="instagram"
      unicode="&#xE927;"
      horiz-adv-x="1000" d="M500 699.98875C445.6825 699.98875 438.8725 699.75875 417.54 698.7852499999999C396.2515 697.8135 381.7125 694.433 368.99 689.48875C355.83825 684.37775 344.68475 677.539 333.565 666.4205C322.4465 655.302 315.60775 644.14825 310.4965 630.9955C305.552 618.27325 302.17175 603.7355 301.2 582.4480000000001C300.22675 561.1165000000001 299.99725 554.3055 299.99725 499.988C299.99725 445.6705000000001 300.2272500000001 438.8605 301.2 417.528C302.17175 396.2405 305.55225 381.703 310.4965 368.9805C315.6075 355.828 322.44625 344.6755 333.565 333.5555C344.6835 322.4379999999999 355.837 315.598 368.99 310.488C381.71225 305.5429999999999 396.25 302.163 417.54 301.1905C438.87225 300.218 445.6825 299.988 500 299.988C554.3175 299.988 561.1275 300.218 582.46 301.1905C603.7475000000001 302.163 618.285 305.5429999999999 631.0075 310.488C644.16 315.598 655.3125 322.438 666.4325000000001 333.5555C677.5500000000001 344.6755 684.3875 355.8279999999999 689.5 368.9805C694.445 381.703 697.825 396.2405 698.7975 417.528C699.7700000000001 438.8605 700.0000000000001 445.6705 700.0000000000001 499.988C700.0000000000001 554.3054999999999 699.7700000000001 561.1155 698.7975 582.4480000000001C697.825 603.7365 694.445 618.273 689.5 630.9955C684.3875 644.14725 677.55 655.301 666.4325000000001 666.4205000000001C655.3125 677.539 644.1600000000001 684.3777500000001 631.0075 689.48875C618.285 694.43325 603.7475000000001 697.8135 582.46 698.78525C561.1275 699.7585 554.3175000000001 699.98875 500 699.98875zM500 663.9512500000001C553.4024999999999 663.9512500000001 559.7275 663.74875 580.8175 662.78575C600.315 661.8957499999999 610.905 658.63775 617.955 655.8995C627.2900000000001 652.27125 633.9525000000001 647.9367500000001 640.95 640.9385C647.9475000000001 633.94025 652.2825 627.277 655.9100000000001 617.9422500000001C658.6500000000001 610.894 661.9075 600.3042499999999 662.7975000000001 580.80475C663.7600000000001 559.7147500000001 663.9625000000001 553.38975 663.9625000000001 499.98725C663.9625000000001 446.58475 663.7600000000002 440.25975 662.7975000000001 419.1697499999999C661.9075000000001 399.6697499999999 658.6500000000001 389.0797499999999 655.9100000000001 382.03225C652.2825000000001 372.69725 647.9475000000001 366.0347499999999 640.95 359.03725C633.9525 352.03725 627.2900000000001 347.7022500000001 617.955 344.07475C610.9050000000001 341.33725 600.315 338.07975 580.8175 337.1897499999999C559.73 336.2272499999999 553.4050000000001 336.0222499999999 500 336.0222499999999C446.5950000000001 336.0222499999999 440.2700000000001 336.2272499999999 419.1825 337.1897499999999C399.68275 338.0797499999999 389.0925 341.33725 382.045 344.07475C372.7095 347.70225 366.04625 352.03725 359.048 359.03725C352.04975 366.0347500000001 347.715 372.69725 344.08775 382.03225C341.34875 389.07975 338.09075 399.66975 337.20075 419.16975C336.2385 440.25975 336.03525 446.58475 336.03525 499.98725C336.03525 553.38975 336.23775 559.7147500000001 337.20075 580.80475C338.09075 600.30475 341.34875 610.89475 344.08775 617.9422500000001C347.715 627.277 352.04975 633.9402500000001 359.048 640.9385000000001C366.04625 647.9367500000001 372.7095 652.27125 382.0449999999999 655.8995000000001C389.0924999999999 658.6377500000001 399.6822499999999 661.8957500000001 419.1799999999999 662.78575C440.2699999999999 663.748 446.5949999999999 663.9512500000001 499.9974999999999 663.9512500000001zM500.39725 602.36875C443.63475 602.36875 397.61975 556.35375 397.61975 499.5912499999999C397.61975 442.82875 443.63475 396.8137499999999 500.39725 396.8137499999999C557.1597499999999 396.8137499999999 603.17475 442.8287499999999 603.17475 499.5912499999999C603.17475 556.3537499999999 557.15975 602.3687499999999 500.39725 602.3687499999999zM500.39725 566.30625C537.24225 566.30625 567.11225 536.43625 567.11225 499.5912499999999C567.11225 462.7462499999999 537.24225 432.8762499999999 500.39725 432.8762499999999C463.55225 432.8762499999999 433.68225 462.7462499999999 433.68225 499.5912499999999C433.68225 536.43625 463.55225 566.30625 500.39725 566.30625zM630.15725 607.1312499999999C630.15725 620.281 619.49975 630.9404999999999 606.34975 630.9404999999999C593.19975 630.9404999999999 582.5397499999999 620.281 582.5397499999999 607.1312499999999C582.5397499999999 593.9815000000001 593.19975 583.32125 606.34975 583.32125C619.49975 583.32125 630.15725 593.9815000000001 630.15725 607.13125M500 995.35C226.7 995.35000025 4.65 773.2750000000001 4.65 500C4.65 226.7 226.725 4.65 500 4.65C773.3000000000001 4.65 995.35 226.725 995.35 500C995.35 773.3 773.275 995.35 500 995.35zM500 948.1325C747.7925 948.1325025 948.15 747.79 948.15 499.9825C948.15 252.1900000000001 747.8075 51.8325000000001 500.0000000000001 51.8325000000001C252.2075000000001 51.8325000000001 51.8500000000001 252.1750000000001 51.8500000000001 499.9825C51.8500000000001 747.7750000000001 252.1925000000001 948.1325 500.0000000000001 948.1325z" />
    <glyph glyph-name="linkedin"
      unicode="&#xE928;"
      horiz-adv-x="1000" d="M525.625 499.03875V500.00125C525.425 499.6762499999999 525.2125 499.3512499999999 525 499.03875zM352.375 674.98875H668.2750000000001C683.4100000000001 674.98875 695.6800000000001 663.0262499999999 695.6800000000001 648.26625V328.66625C695.6800000000001 313.9287500000001 683.4175 301.9512500000001 668.2750000000001 301.9512500000001H352.3750000000001C337.2550000000001 301.9512500000001 324.9925000000001 313.92125 324.9925000000001 328.66625V648.2662500000001C324.9925000000001 663.01875 337.2550000000001 674.98875 352.3750000000001 674.98875zM437.9775 595.88875C437.6025 612.4112499999999 425.8200000000001 624.98875 406.665 624.98875C387.5175 624.98875 374.9925 612.4112499999999 374.9925 595.88875C374.9925 579.7262499999999 387.1425000000001 566.7887499999999 405.9225000000001 566.7887499999999H406.2975000000001C425.8125000000001 566.7887499999999 437.9775 579.7262499999999 437.9775 595.88875zM589.9075 377.5637500000001H645.9024999999999V474.1637500000001C645.9024999999999 525.90625 618.28 549.9887500000001 581.4475 549.9887500000001C551.725 549.9887500000001 538.42 533.64625 530.98 522.1712500000001V546.0137500000001H474.9925C475.7275 530.2262500000002 474.9925 377.5712500000001 474.9925 377.5712500000001H530.98V471.6437500000002C530.98 476.6837500000001 531.3399999999999 481.7087500000001 532.8175 485.3012500000001C536.875 495.3662500000001 546.0849999999999 505.7837500000001 561.55 505.7837500000001C581.8075 505.7837500000001 589.9075 490.3337500000001 589.9075 467.6987500000001zM374.9925 377.79625H430.98V546.23875H374.9925zM500 995.35C226.7 995.35000025 4.65 773.2750000000001 4.65 500C4.65 226.7 226.725 4.65 500 4.65C773.3000000000001 4.65 995.35 226.725 995.35 500C995.35 773.3 773.275 995.35 500 995.35zM500 948.1325C747.7925 948.1325025 948.15 747.79 948.15 499.9825C948.15 252.1900000000001 747.8075 51.8325000000001 500.0000000000001 51.8325000000001C252.2075000000001 51.8325000000001 51.8500000000001 252.1750000000001 51.8500000000001 499.9825C51.8500000000001 747.7750000000001 252.1925000000001 948.1325 500.0000000000001 948.1325z" />
    <glyph glyph-name="twitter"
      unicode="&#xE929;"
      horiz-adv-x="1000" d="M704.45 633.6637499999999C688.65 626.65525 671.6675 621.9205 653.8475 619.7905C672.0375 630.69425 686.01 647.9604999999999 692.5875000000001 668.5355C675.5600000000001 658.4369999999999 656.705 651.1064999999999 636.6350000000001 647.1555C620.565 664.2797499999999 597.6675 674.978 572.325 674.978C523.67 674.978 484.2175 635.5305 484.2175 586.8754999999999C484.2175 579.9697499999999 484.99675 573.24475 486.49775 566.7964999999999C413.2727500000001 570.4704999999999 348.35275 605.5464999999999 304.9002500000001 658.854C297.3162500000001 645.8417499999999 292.97025 630.709 292.97025 614.5614999999999C292.97025 583.9939999999999 308.5247500000001 557.0264999999999 332.16525 541.2265C317.72075 541.684 304.1377500000001 545.6477500000001 292.2577500000001 552.2462499999999C292.2491750000001 551.8789999999999 292.2491750000001 551.5097499999999 292.2491750000001 551.13825C292.2491750000001 508.45075 322.6191750000001 472.84075 362.9266750000001 464.7457499999999C355.533675 462.7315 347.749925 461.65575 339.7129250000001 461.65575C334.033425 461.65575 328.515175 462.20975 323.1341750000001 463.23625C334.3491750000001 428.2337500000001 366.8841750000001 402.75875 405.4391750000001 402.04875C375.2841750000001 378.41625 337.2966750000001 364.3337499999999 296.0166750000001 364.3337499999999C288.9049250000001 364.3337499999999 281.8921750000001 364.74875 274.9994250000001 365.56625C313.9919250000001 340.56625 360.3044250000001 325.97625 410.0594250000001 325.97625C572.116925 325.97625 660.7344250000001 460.2312499999999 660.7344250000001 576.6512499999999C660.7344250000001 580.4712499999998 660.6494250000001 584.2694999999999 660.479425 588.0509999999999C677.699425 600.4704999999999 692.6344250000001 615.9884999999999 704.4469250000001 633.656zM500 995.35C226.7 995.35000025 4.65 773.2750000000001 4.65 500C4.65 226.7 226.725 4.65 500 4.65C773.3000000000001 4.65 995.35 226.725 995.35 500C995.35 773.3 773.275 995.35 500 995.35zM500 948.1325C747.7925 948.1325025 948.15 747.79 948.15 499.9825C948.15 252.1900000000001 747.8075 51.8325000000001 500.0000000000001 51.8325000000001C252.2075000000001 51.8325000000001 51.8500000000001 252.1750000000001 51.8500000000001 499.9825C51.8500000000001 747.7750000000001 252.1925000000001 948.1325 500.0000000000001 948.1325z" />
    <glyph glyph-name="youtube"
      unicode="&#xE92A;"
      horiz-adv-x="1000" d="M500.025 999.55C225.525 999.55 2.525 775.5474999999999 2.525 500C2.525 224.425 225.5150000000001 0.45 500.025 0.45C774.525 0.45 997.475 224.4525 997.475 500C997.475 775.5749999999999 774.5349999999999 999.55 500.0249999999999 999.55zM500.025 952.09C748.775 952.09 949.9750000000003 750.0174999999999 949.9750000000003 499.99C949.9750000000003 249.99 748.7625 47.8899999999999 500.0250000000001 47.8899999999999C251.2750000000001 47.8899999999999 50.0250000000001 249.9625 50.0250000000001 499.9899999999999C50.0250000000001 749.9899999999999 251.2875000000001 952.09 500.0250000000001 952.09zM693.225 668.7874999999999C714.7375000000001 663.03775 731.6775 646.09325 737.4275 624.585C747.8774999999999 585.5875 747.8774999999999 504.235 747.8774999999999 504.235C747.8774999999999 504.235 747.8774999999999 422.8775 737.4275 383.885C731.6775 362.3775 714.7375000000001 345.4275 693.225 339.6824999999999C654.2325000000001 329.2325 497.8750000000001 329.2325 497.8750000000001 329.2325C497.8750000000001 329.2325 341.5225000000001 329.2325 302.5300000000001 339.6824999999999C281.0172500000001 345.4275 264.0775000000001 362.3775 258.3275000000001 383.885C247.87775 422.8775 247.87775 504.235 247.87775 504.235C247.87775 504.235 247.87775 585.5875 258.3275000000001 624.585C264.0772500000001 646.0939999999999 281.0177500000001 663.0374999999999 302.5300000000001 668.7874999999999C341.5225000000001 679.23325 497.8750000000001 679.23325 497.8750000000001 679.23325C497.8750000000001 679.23325 654.2325000000001 679.23325 693.225 668.7874999999999zM443.2550000000001 431.5424999999999L573.1524999999999 506.5399999999999L443.255 581.5449999999998z" />
    <glyph glyph-name="rss"
      unicode="&#xE92B;"
      horiz-adv-x="1000" d="M325.15 606.0656250000001V672.863125C421.6025000000001 672.823125 508.9775000000001 633.578125 572.36 570.1756250000001C635.74 506.7531250000001 674.965 419.3356250000001 675.005 322.8631250000001H608.0224999999999C607.8774999999999 478.9731250000001 481.115 605.9631250000001 325.1475000000001 606.0631250000001zM325.0475 487.018125V553.8381249999999C388.6975 553.817375 446.3575 527.908125 488.1950000000001 486.0531249999999C530.03 444.195625 555.92 386.535625 555.98 322.8656249999999H488.8325V322.988125C488.7502500000001 366.760625 471.7112500000001 408.080625 440.8025 438.9281249999999C409.9550000000001 469.858125 368.6550000000001 487.0006249999998 325.0475 487.0206249999999zM418.0007500000001 369.555625C417.9802500000001 356.7981250000001 412.8150000000001 345.2931250000001 404.3572500000002 336.8781250000001L404.3147500000001 336.8556250000001C395.8785000000002 328.440625 384.3135000000001 323.275625 371.4722500000001 323.275625C358.6115000000001 323.275625 347.0875000000001 328.4606250000001 338.6297500000001 336.8781250000001V336.8556250000001L338.6092500000001 336.8781250000001H338.6297500000001C330.21325 345.2931250000001 325.0067500000001 356.775625 325.0067500000001 369.555625C325.0067500000001 382.3556250000001 330.21325 393.8581250000001 338.6302500000001 402.318125C347.0872500000001 410.7331250000001 358.6112500000001 415.940625 371.4727500000002 415.940625C384.3130000000001 415.940625 395.8780000000002 410.733125 404.3152500000001 402.318125C412.8142500000002 393.838125 417.9795000000001 382.3556250000001 418.0000000000001 369.555625zM500 997.475C224.4250000000001 997.475 0.45 774.535 0.45 500.025C0.45 225.525 224.4525000000001 2.525 500 2.525C775.575 2.525 999.55 225.515 999.55 500.0249999999999C999.55 774.525 775.5475 997.475 500 997.475zM500 949.965C750 949.965 952.1000000000003 748.7525 952.1000000000003 500.015C952.1000000000003 251.265 750.0275 50.015 500.0000000000001 50.015C250.0000000000001 50.015 47.9000000000001 251.2774999999999 47.9000000000001 500.015C47.9000000000001 748.765 249.9725000000002 949.965 500.0000000000001 949.965z" />
    <glyph glyph-name="facebook-filled"
      unicode="&#xE92C;"
      horiz-adv-x="1000" d="M500 1000C223.85775 1000 0 776.14225 0 500C0 223.85775 223.85775 0 500 0C776.14225 0 1000 223.85775 1000 500C1000 776.14225 776.14225 1000 500 1000zM550.6825 700C578.8199999999999 700 599.6575 697.36325 599.6575 697.36325L597.99725 634.27825C597.99725 634.27825 576.76725 634.4735 553.6122499999999 634.4735C528.55225 634.4735 524.55975 623.22525 524.55975 604.5909999999999V555.2735H599.99975L596.72825 487.6959999999999H524.56075V300.001H451.07325V487.6959999999999H399.99825V555.2735H451.07325V612.9884999999999C451.07325 658.346 481.1932499999999 700.001 550.6832499999999 700.001z" />
    <glyph glyph-name="instagram-filled"
      unicode="&#xE92D;"
      horiz-adv-x="1000" d="M500 1000C223.85775 1000 0 776.14225 0 500C0 223.85775 223.85775 0 500 0C776.14225 0 1000 223.85775 1000 500C1000 776.14225 776.14225 1000 500 1000zM500 700C554.3175 700 561.14 699.75275 582.47 698.77925C603.7585 697.8075 618.2825 694.44625 631.005 689.502C644.1567500000001 684.391 655.3355 677.57375 666.455 666.4549999999999C677.5735 655.3365 684.39075 644.1575 689.5020000000001 631.005C694.4465000000001 618.2827500000001 697.8075 603.7574999999999 698.77925 582.47C699.7525 561.1385 700 554.3175 700 500C700 445.6825 699.75275 438.86 698.77925 417.53C697.8075 396.2415 694.44625 381.7175 689.5020000000001 368.995C684.39075 355.8432499999999 677.5737500000001 344.6645 666.455 333.545C655.3365 322.4265000000001 644.1575 315.60925 631.005 310.498C618.28275 305.5534999999999 603.7575 302.1925 582.47 301.22075C561.1385 300.2475 554.3175 300 500 300C445.6825 300 438.8625 300.2475 417.53 301.22075C396.2415 302.1925 381.7175 305.5537500000001 368.995 310.498C355.84325 315.6090000000001 344.6645000000001 322.4262499999999 333.545 333.545C322.4265000000001 344.6635 315.6092500000001 355.8432499999999 310.4980000000001 368.995C305.5535000000001 381.7172500000001 302.1925000000001 396.2425 301.22075 417.53C300.2475 438.86125 300 445.6825 300 500C300 554.3175 300.248 561.14 301.22075 582.47C302.1925 603.7585 305.5537500000001 618.2825 310.4980000000001 631.005C315.6090000000001 644.15675 322.4262500000001 655.3354999999999 333.545 666.4549999999999C344.6635 677.5735 355.8425000000001 684.39075 368.995 689.502C381.71725 694.4465 396.2425 697.8074999999999 417.53 698.77925C438.862 699.7525 445.6825 700 500 700zM500 663.965C446.5975000000001 663.965 440.2800000000001 663.7552499999999 419.1900000000001 662.793C399.6910000000001 661.903 389.0800000000001 658.6465000000001 382.0325000000001 655.90825C372.6970000000001 652.28025 366.0327500000001 647.965 359.0345000000001 640.96675C352.0362500000001 633.9685 347.7205000000001 627.3035 344.0930000000001 617.96875C341.3540000000001 610.9205 338.0982500000001 600.31025 337.2082500000001 580.81125C336.2452500000001 559.722 336.0365000000001 553.40375 336.0365000000001 500.00125C336.0365000000001 446.5987500000001 336.2462500000001 440.28125 337.2085000000001 419.1912500000001C338.0985000000001 399.6922500000001 341.3542500000001 389.0812500000001 344.0932500000001 382.0337500000001C347.7205000000001 372.6990000000001 352.0365000000001 366.0340000000001 359.0347500000001 359.03575C366.0330000000001 352.0375 372.6972500000001 347.7217500000001 382.03275 344.09425C389.0802500000001 341.3552500000001 399.6912500000001 338.0995000000001 419.1902500000001 337.2095C440.2762500000001 336.2465 446.59525 336.0374999999999 500.0002500000001 336.0374999999999C553.40525 336.0374999999999 559.7252500000001 336.2472499999999 580.81025 337.2092499999999C600.3100000000001 338.0992499999999 610.92025 341.3549999999999 617.96775 344.094C627.3025 347.72125 633.9675000000001 352.03725 640.9657500000001 359.0355C647.964 366.03375 652.27975 372.699 655.9072500000001 382.0335C658.64625 389.08175 661.902 399.692 662.7920000000001 419.1910000000001C663.7550000000001 440.28025 663.9640000000002 446.5985 663.9640000000002 500.001C663.9640000000002 553.4034999999999 663.7542500000002 559.721 662.7922500000002 580.8109999999999C661.9022500000002 600.31 658.6465000000002 610.9209999999999 655.9075000000001 617.9685C652.2802500000001 627.3032499999999 647.9642500000001 633.9682499999999 640.9660000000001 640.9664999999999C633.9677500000001 647.9647499999999 627.3027500000002 652.2797499999999 617.9680000000001 655.9079999999999C610.9197500000001 658.6462499999999 600.3095000000001 661.9027499999999 580.8105000000002 662.7927499999998C559.7212500000002 663.7557499999998 553.4030000000001 663.9644999999998 500.0005000000002 663.9644999999998zM606.3475000000001 630.9575C619.49725 630.9575 630.1755 620.279 630.1755 607.1295C630.1755 593.98 619.497 583.35025 606.3475000000001 583.35025C593.198 583.35025 582.5195000000001 593.97975 582.5195000000001 607.1295C582.5195000000001 620.27925 593.1980000000001 630.9575 606.3475000000001 630.9575zM500.39 602.3925C557.1524999999999 602.3925 603.1725 556.3725 603.1725 499.61C603.1725 442.8475000000001 557.1524999999999 396.8275 500.39 396.8275C443.6275 396.8275 397.6075 442.8475000000001 397.6075 499.61C397.6075 556.3725 443.6275 602.3925 500.39 602.3925zM500.39 566.3075C463.545 566.3075 433.69 536.455 433.69 499.6075C433.69 462.76 463.5425 432.9075000000001 500.39 432.9075000000001C537.2375 432.9075000000001 567.0899999999999 462.76 567.0899999999999 499.6075C567.0899999999999 536.455 537.2375 566.3075 500.39 566.3075z" />
    <glyph glyph-name="linkedin-filled"
      unicode="&#xE92E;"
      horiz-adv-x="1000" d="M500 1000C223.85775 1000 0 776.14225 0 500C0 223.85775 223.85775 0 500 0C776.14225 0 1000 223.85775 1000 500C1000 776.14225 776.14225 1000 500 1000zM352.3925000000001 675H668.2674999999999C683.4024999999999 675 695.7099999999999 663.0509999999999 695.7099999999999 648.29V328.665C695.7099999999999 313.9275 683.411 301.955 668.2674999999999 301.955H352.3925C337.2725 301.955 325 313.919 325 328.665V648.29C325 663.0425 337.2725 675 352.3925000000001 675zM406.6900000000001 625C387.5425 625 375.0000000000001 612.421 375.0000000000001 595.8975C375.0000000000001 579.7349999999999 387.1282500000001 566.795 405.9075000000001 566.795H406.2982500000001C425.8132500000001 566.795 437.9882500000001 579.7339999999999 437.9882500000001 595.8975C437.6132500000001 612.42 425.8445000000001 625 406.6882500000001 625zM581.4449999999999 550C551.7225 550 538.445 533.643 531.005 522.1675V546.0445H475C475.735 530.2570000000001 475 377.587 475 377.587H531.005V471.6295C531.005 476.6695000000001 531.33425 481.7090000000001 532.8117500000001 485.3015000000001C536.86925 495.3665000000001 546.1065000000001 505.8092500000001 561.5717500000001 505.8092500000001C581.8292500000001 505.8092500000001 589.89175 490.3582500000001 589.89175 467.7242500000001V377.5867500000002H645.8967500000001V474.1692500000001C645.8967500000001 525.9117500000001 618.2767500000001 549.9992500000001 581.4442500000001 549.9992500000001zM375 546.24025V377.78275H431.0050000000001V546.24025z" />
    <glyph glyph-name="twitter-filled"
      unicode="&#xE92F;"
      horiz-adv-x="1000" d="M500 1000C223.85775 1000 0 776.14225 0 500C0 223.85775 223.85775 0 500 0C776.14225 0 1000 223.85775 1000 500C1000 776.14225 776.14225 1000 500 1000zM569.2375000000001 675C594.3175 675 617.005 664.2925 632.9100000000001 647.12C652.77225 651.08225 671.4325 658.4282499999999 688.2800000000001 668.5554999999999C681.7712500000001 647.92175 667.902 630.613 649.9000000000001 619.678C667.53525 621.81425 684.3625000000001 626.5165 699.9975000000001 633.54525C688.3080000000001 615.82725 673.5325000000001 600.29775 656.4925000000001 587.84275C656.6602500000001 584.05075 656.73675 580.24775 656.73675 576.417C656.73675 459.6545 569.01925 324.992 408.6417500000001 324.992C359.4042500000001 324.992 313.5867500000001 339.6177499999999 274.99925 364.6895C281.8205000000001 363.8712499999999 288.762 363.46875 295.8 363.46875C336.6525000000001 363.46875 374.2600000000001 377.5615 404.1 401.26125C365.9425000000001 401.9717500000001 333.7525000000001 427.53625 322.6550000000001 462.63875C327.9802500000001 461.6094999999999 333.4407500000001 461.07625 339.0612500000001 461.07625C347.0150000000001 461.07625 354.6942500000001 462.13275 362.0105000000001 464.1524999999999C322.1230000000001 472.2707499999999 292.088 507.965 292.088 550.7725C292.088 551.14525 292.0795000000001 551.52725 292.088 551.8955000000001C303.8435 545.27825 317.2955000000001 541.319 331.5905 540.86025C308.19425 556.70475 292.773 583.74025 292.773 614.39525C292.773 630.58875 297.0840000000001 645.78025 304.5895000000001 658.8277499999999C347.5920000000001 605.3702499999999 411.8595000000001 570.17775 484.3270000000001 566.49275C482.8415000000001 572.95925 482.032 579.68475 482.032 586.61C482.032 635.405 521.0870000000001 674.99 569.2395 674.99z" />
    <glyph glyph-name="youtube-filled"
      unicode="&#xE930;"
      horiz-adv-x="1000" d="M500 1000C223.85775 1000 0 776.14225 0 500C0 223.85775 223.85775 0 500 0C776.14225 0 1000 223.85775 1000 500C1000 776.14225 776.14225 1000 500 1000zM500 675C500 675 656.37 674.9965 695.3625 664.55075C716.8755 658.8009999999999 733.8025 641.8702499999999 739.5525 620.36075C750.00225 581.36325 750.00175 499.99825 750.00175 499.99825C750.00175 499.99825 750.0024999999999 418.6307500000001 739.5525 379.6357500000001C733.80275 358.12675 716.876 341.19075 695.3625 335.44575C656.37 324.99575 500 324.9965 500 324.9965C500 324.9965 343.63 324.99575 304.6375000000001 335.44575C283.1245000000001 341.19125 266.1975000000001 358.1262499999999 260.4475000000001 379.6357500000001C249.9977500000001 418.62825 249.99825 499.99825 249.99825 499.99825C249.99825 499.99825 249.9975 581.36325 260.4475000000001 620.3607499999999C266.1972500000001 641.86975 283.124 658.8007499999999 304.6375000000001 664.5507499999999C343.63 674.9965 500 675 500 675zM445.3625 577.295V427.295L575.2950000000001 502.295z" />
    <glyph glyph-name="rss-filled"
      unicode="&#xE931;"
      horiz-adv-x="1000" d="M500 1000C223.85775 1000 0 776.14225 0 500C0 223.85775 223.85775 0 500 0C776.14225 0 1000 223.85775 1000 500C1000 776.14225 776.14225 1000 500 1000zM325.1475000000001 675C421.6 674.95875 508.9825 635.7175 572.365 572.315C635.7475 508.8925 674.96 421.4725000000001 675.0024999999999 325H608.01C607.866 481.11 481.1125 608.1 325.16 608.2V674.9975zM325.04975 555.9575C388.69975 555.9369999999999 446.34725 530.04 488.18475 488.185C530.01975 446.3275 555.89475 388.6725 555.9572499999999 325.0025H488.8197499999999V325.149C488.7375 368.919 471.7307499999999 410.219 440.82225 441.0665C409.9747500000001 471.9965 368.65725 489.1415 325.04975 489.1615V555.9590000000001zM371.48475 418.0675C384.32575 418.0675 395.86 412.861 404.29725 404.4445C412.79625 395.96625 417.99725 384.48075 418.0179999999999 371.6819999999999C417.9974999999999 358.92325 412.804 347.4324999999999 404.3459999999999 339.017H404.2972499999999C395.8599999999999 330.60025 384.3257499999999 325.3939999999999 371.4847499999999 325.3939999999999C358.6232499999999 325.3939999999999 347.0812499999999 330.6004999999999 338.6222499999999 339.017C330.2064999999999 347.4334999999999 324.9992499999999 358.90375 324.9992499999999 371.6819999999999C324.9992499999999 384.4817499999999 330.2057499999999 395.988 338.6222499999999 404.4445C347.0799999999998 412.8612500000001 358.6219999999999 418.0675 371.4847499999999 418.0675z" />
    <glyph glyph-name="circle-arrow"
      unicode="&#xE932;"
      horiz-adv-x="1000" d="M500.0000000000001 1003.8C225.3750000000001 1003.8 2.5400000000001 777.79 2.5400000000001 500C2.5400000000001 222.205 225.3700000000001 -3.8 500.0000000000001 -3.8C774.625 -3.8 997.46 222.2149999999999 997.46 500C997.46 777.8 774.6249999999999 1003.8 500 1003.8zM500.0000000000001 956.144C748.515 956.144 949.805 752.364 949.805 499.994C949.805 247.6290000000001 748.5149999999999 43.844 500 43.844C251.48 43.844 50.295 247.6290000000001 50.295 499.994C50.295 752.3639999999998 251.49 956.144 500 956.144zM702.15 545.8556249999999L661.7529999999999 505.458625L530.763 636.448625V345.898625H473.538L473.537985 636.448625L342.5479850000001 505.458625L302.1794850000001 545.8556249999999L502.164485 745.840625z" />
    <glyph glyph-name="circle-play"
      unicode="&#xE933;"
      horiz-adv-x="1000" d="M500.0475 998.975C225.6825 998.975 2.3925 775.0149999999999 2.3925 500.0499999999999C2.3925 225.0799999999999 225.6875000000001 1.025 500.0475 1.025C774.4074999999999 1.025 997.6075 225.08 997.6075 500.05C997.6075 775.02 774.4075 998.975 500.0475 998.975zM500.0475 908.4499999999998C725.2975 908.449995 907.0775 726.2049999999999 907.0775 500.0499999999999C907.0775 273.8999999999999 725.2975 91.65 500.0475 91.65C274.7975000000001 91.65 93.0175000000001 273.8950000000001 93.0175000000001 500.05C93.0175000000001 726.2 274.7925000000002 908.45 500.0475 908.45zM676.7475 508.1641999999999L423.2925 340.2491999999999V676.0791999999999z" />
    <glyph glyph-name="info-filled"
      unicode="&#xE934;"
      horiz-adv-x="1000" d="M500 1000C224 1000 0 776 0 500C0 223.9999999999999 224 0 500 0C776.0000000000001 0 1000 223.9999999999999 1000 500C1000 776 776.0000000000001 1000 500 1000zM535.7142857142858 285.7142857142857L464.2857142857143 285.7142857142857L464.2857142857143 571.4285714285714L535.7142857142858 571.4285714285714L535.7142857142858 285.7142857142857zM535.7142857142858 642.8571428571429L464.2857142857143 642.8571428571429L464.2857142857143 714.2857142857142L535.7142857142858 714.2857142857142L535.7142857142858 642.8571428571429z" />
    <glyph glyph-name="question"
      unicode="&#xE935;"
      horiz-adv-x="1000" d="M500.05 1001.6999999999998C224.37 1001.6999999999998 0.44 776.7749999999999 0.44 500.0499999999999C0.44 223.315 224.37 -1.7 500.05 -1.7C775.73 -1.7 999.56 223.32 999.56 500.05C999.56 776.7850000000001 775.7299999999999 1001.7 500.05 1001.7zM500.05 954.0439999999998C749.85 954.0439999999998 951.905 751.1239999999998 951.905 500.0389999999999C951.905 248.9539999999999 749.85 45.9389999999998 500.05 45.9389999999998C250.25 45.9389999999998 48.095 248.9589999999998 48.095 500.0389999999999C48.095 751.1239999999998 250.2500000000001 954.0439999999998 500.05 954.0439999999998zM471.17 472.1406249999998L471.7735 441.9721249999999H541.7634999999999L543.5734999999999 467.3136249999999C545.3834999999998 489.0346249999998 568.915 507.1356249999999 593.6534999999999 530.063625C620.2014999999999 556.0081250000001 646.7484999999998 587.3836249999999 646.7484999999998 634.4436249999999C646.7484999999998 713.4836249999998 587.0134999999998 752.0986249999999 519.4384999999999 752.0986249999999C469.3584999999999 752.0986249999999 422.8985 730.3776249999999 395.7484999999999 696.5886249999999L451.8634999999998 644.093625C466.9474999999998 664.608125 489.8754999999998 676.6756249999999 512.8034999999999 676.6756249999999C541.1614999999998 676.6756249999999 561.0724999999998 659.781125 561.0724999999998 629.6131249999999C561.0724999999998 602.4616249999999 541.7649999999998 580.7401249999998 522.4569999999999 560.828125C519.4524999999999 557.5231249999999 516.3919999999998 554.255625 513.3369999999999 550.9936249999998C491.8514999999999 528.0561249999998 470.6429999999999 505.4131249999999 471.1709999999999 472.133625zM459.1030000000001 345.4356249999998C459.1030000000001 318.8876249999998 480.824 297.7701249999999 507.9755 297.7701249999999C534.5235 297.7701249999999 556.848 318.8876249999998 556.848 345.4356249999998C556.848 371.9841249999999 534.5234999999999 393.7051249999998 507.9755 393.7051249999998C480.824 393.7051249999998 459.1030000000001 371.9841249999999 459.1030000000001 345.4356249999998z" />
    <glyph glyph-name="question-filled"
      unicode="&#xE936;"
      horiz-adv-x="1000" d="M500 0C776.1428571428571 0 1000 223.8571428571429 1000 500C1000 776.1428571428571 776.1428571428571 1000 500 1000C223.8571428571429 1000 0 776.1428571428571 0 500C0 223.8571428571429 223.8571428571429 0 500 0zM441.1428571428572 371.6214285714285L440.4764285714286 404.9542857142857C439.8928571428572 441.7257142857143 463.3264285714286 466.7435714285714 487.0657142857143 492.0899999999999C490.4414285714286 495.6935714285713 493.8228571428572 499.3042857142856 497.1428571428572 502.9557142857142C518.4764285714286 524.9557142857143 539.8092857142858 548.9557142857143 539.8092857142858 578.9557142857143C539.8092857142858 612.2892857142856 517.8092857142858 630.9557142857143 486.4764285714286 630.9557142857143C461.1428571428572 630.9557142857143 435.8092857142857 617.6228571428571 419.1428571428572 594.9557142857142L357.1428571428572 652.9557142857142C387.1428571428572 690.2892857142856 438.4785714285715 714.2892857142856 493.8071428571428 714.2892857142856C568.4714285714285 714.2892857142856 634.4714285714286 671.622857142857 634.4714285714286 584.2892857142856C634.4714285714286 532.2892857142856 605.1378571428572 497.6249999999999 575.8042857142858 468.9535714285713C548.4714285714286 443.6207142857142 522.4714285714286 423.6207142857142 520.4714285714286 399.6207142857142L518.4714285714286 371.6207142857142zM481.1428571428572 318.2857142857142C510.4764285714285 318.2857142857142 535.1428571428571 294.2857142857142 535.1428571428571 264.95C535.1428571428571 235.6214285714284 510.4764285714286 212.2857142857142 481.1428571428572 212.2857142857142C451.1428571428572 212.2857142857142 427.1428571428571 235.6214285714285 427.1428571428571 264.95C427.1428571428571 294.2857142857142 451.1428571428572 318.2857142857142 481.1428571428572 318.2857142857142z" />
    <glyph glyph-name="logo"
      unicode="&#xE937;"
      horiz-adv-x="1000" d="M233.6153846153846 519.326923076923H482.3076923076923V751.3653846153845H274.1153846153846C249.4230769230769 681.25 235.4230769230769 602.826923076923 233.6153846153846 519.326923076923zM608.9230769230768 10.4038461538462H703.9615384615383L908.2692307692308 214.6730769230769H746.1923076923077C713.6538461538462 133.75 667.1538461538462 64.0576923076923 608.923076923077 10.4038461538462zM440.8846153846153 10.4038461538462H482.3076923076922V214.6730769230769H288.1538461538461C323.8461538461538 130.6346153846155 375.8846153846154 60.5192307692308 440.8846153846153 10.4038461538462zM90.4999999999999 214.6730769230769L294.8076923076923 10.4038461538462H389.2692307692308C331.1538461538462 64.0192307692307 284.7692307692307 133.75 252.3461538461538 214.6730769230769zM561.8461538461538 989.5961538461538H517.6923076923076V786.7884615384615H711.7307692307692C676.6538461538462 870.2884615384615 625.576923076923 939.903846153846 561.8461538461538 989.5961538461538zM287.8846153846154 786.7884615384615H482.3076923076923V989.5961538461538H438.1153846153846C374.2692307692307 939.903846153846 323.0769230769231 870.2884615384615 287.8846153846153 786.7884615384615zM274.3461538461538 250.0961538461538H482.3076923076923V483.9038461538461H233.6153846153846C235.2692307692308 399.8653846153846 249.2692307692308 320.75 274.3461538461539 250.0961538461538zM943 751.3653846153845H760.5C784.0384615384614 680.5961538461537 797.3846153846154 602.326923076923 798.9615384615385 519.326923076923H989V705.4038461538461zM765.4230769230769 483.9038461538461H517.6923076923077V250.0961538461538H724.2307692307693C749.4615384615385 320.75 763.5384615384615 399.8653846153846 765.423076923077 483.9038461538461zM907.576923076923 786.7884615384615L704.7692307692308 989.5961538461538H613.1923076923077C670.2307692307693 936.403846153846 715.8846153846155 867.2499999999999 747.6538461538462 786.7884615384615zM759.3076923076924 250.0961538461538H943.6538461538462L989 295.4423076923076V483.9038461538461H798.8461538461538C797.0769230769231 400.326923076923 783.4230769230769 321.4423076923076 759.3076923076924 250.0961538461538zM386.7307692307694 989.5961538461538H291.5384615384617L91.346153846154 786.7884615384615H251.923076923077C283.8846153846155 867.25 329.6153846153847 936.403846153846 386.7307692307694 989.5961538461538zM517.6923076923077 214.6730769230769V10.4038461538462H557.3076923076924C622.3846153846154 60.5192307692308 674.5384615384615 130.6346153846155 710.3846153846154 214.6730769230769zM200.1538461538462 483.9038461538461H11.0000000000001V294.1730769230769L55.1153846153847 250.0961538461538H239.3076923076924C215.3076923076924 321.4423076923076 201.8076923076924 400.3269230769231 200.1538461538462 483.9038461538461zM239.0384615384616 751.3653846153845H56.3846153846155L11.0000000000001 705.4038461538461V519.326923076923H200.1538461538463C201.8846153846155 602.326923076923 215.346153846154 680.5961538461537 239.0384615384617 751.3653846153845zM765.5384615384615 519.326923076923H517.6923076923077V751.3653846153845H725.3846153846155C749.9615384615386 681.25 763.8846153846156 602.826923076923 765.5384615384617 519.326923076923z" />
    <glyph glyph-name="history"
      unicode="&#xE938;"
      horiz-adv-x="1000" d="M105.9374999999999 583.1446277777777C145.0290388888888 788.0048555555555 325.481911111111 943.4301111111112 541.5715055555554 943.4301111111112C786.1446111111111 943.4301111111112 985 744.57095 985 500.0021555555556C985 255.4306666666667 786.1446111111111 56.5698888888888 541.5715055555556 56.5698888888888C380.8608277777778 56.5698888888888 239.5792500000001 142.210111111111 161.7992611111112 270.4926111111112L210.2992611111112 297.7765555555556C278.3797888888889 186.2373333333334 401.0734722222222 112 541.5715055555556 112C756.1877777777779 112 929.569888888889 285.3875000000001 929.569888888889 500.0021555555556C929.569888888889 714.6151944444446 756.1877777777779 888.0016166666667 541.5715055555556 888.0016166666667C355.5147277777778 888.0016166666667 200.6396777777778 757.6600222222223 162.6652555555556 583.1446277777778H236.7145166666667L125.8569888888889 444.5736611111112L15 583.1446277777778zM513.8569888888887 721.7155944444445V749.4301111111112H569.2849444444444V513.4258777777778L697.4650555555556 410.7971833333334L719.117611111111 393.4778333333334L684.4724444444444 350.1727222222223L662.819888888889 367.4926111111112L524.25 478.3506777777778L513.8569888888887 487.0111611111112z" />
    <glyph glyph-name="happy"
      unicode="&#xE939;"
      horiz-adv-x="1000" d="M503.008750542804 238.2961351216281C408.1937505428039 239.6501351216282 314.3887505428039 286.0901351216282 260.623750542804 367.7861351216282C260.017700542804 368.7071351216282 259.2664005428039 369.4931351216282 258.670600542804 370.4226351216282L259.159100542804 370.7176351216283C255.626350542804 376.2406351216282 253.832600542804 382.8451351216282 256.327050542804 390.4441351216282C261.648550542804 413.0531351216282 291.499050542804 414.1771351216282 304.081050542804 399.5261351216282L304.276550542804 399.6261351216283C369.066550542804 298.5011351216283 517.661550542804 262.3311351216282 621.4615505428039 322.2811351216282L621.756550542804 322.3811351216283L622.051550542804 322.5761351216283C652.577550542804 339.2801351216283 679.401550542804 362.8536351216283 700.176550542804 390.8361351216283C700.676550542804 391.5546351216282 701.270050542804 392.1471351216283 701.836550542804 392.7891351216283C701.931550542804 392.8941351216283 702.036550542804 392.9791351216282 702.1315505428041 393.0841351216282C716.7145505428041 409.0101351216283 750.9200505428041 401.0536351216283 749.8855505428041 375.5061351216283C749.8948505428041 370.5511351216283 748.3725505428041 365.6011351216283 745.6860505428041 361.4436351216283L745.8810505428041 361.3436351216282C720.1760505428041 325.8131351216283 686.641050542804 296.3786351216282 648.226050542804 275.3086351216283C615.654550542804 256.5481351216283 580.236050542804 245.0896351216282 544.0260505428041 240.5431351216283C530.410050542804 238.8331351216283 516.708050542804 238.1016351216283 503.0105505428041 238.2971351216283zM340.803750542804 695.5211351216282C292.882250542804 703.0541351216281 260.948750542804 636.7911351216281 296.663250542804 603.8211351216281C327.338250542804 568.4986351216281 391.968250542804 594.8681351216281 389.438250542804 641.6141351216281C389.943150542804 668.7206351216281 367.752750542804 693.3191351216282 340.805250542804 695.5191351216282zM664.533750542804 696.0096351216281C616.612750542804 703.5421351216281 584.678750542804 637.3746351216281 620.393250542804 604.4096351216282C651.0682505428041 569.0871351216282 715.6982505428041 595.3591351216281 713.168250542804 642.1051351216281C713.673250542804 669.2116351216281 691.4827505428041 693.8101351216282 664.5352505428041 696.0101351216282zM484.453750542804 945.6196351216282C623.113750542804 950.5426351216282 763.8487505428039 896.1986351216282 848.6137505428039 780.3846351216281L849.0037505428039 779.8961351216282L849.298750542804 779.5056351216281C911.2937505428038 701.5906351216281 945.958750542804 601.7306351216281 945.783750542804 502.0656351216281C945.7837005428038 501.9636351216282 945.883750542804 501.8746351216282 945.883750542804 501.7726351216281V500.6984351216282C956.749750542804 213.4784351216283 639.4787505428039 -20.4515648783718 369.4337505428039 74.4284351216281L367.4806505428039 75.0184351216281C90.9206505428039 149.4834351216281 -38.8493494571961 522.4484351216281 131.7406505428039 753.2184351216281L132.3266005428039 754.0973351216281L132.9125505428039 754.8785851216281C209.2925505428039 876.4185851216281 345.8125505428039 940.678585121628 484.4725505428039 945.603585121628zM482.5006505428041 1001.0896351216282C327.3906505428041 995.583135121628 174.770650542804 922.4946351216282 87.5806505428041 784.2946351216282C-105.7143494571959 521.2346351216282 37.904150542804 108.6446351216283 352.5206505428041 23.1446351216283C657.280650542804 -83.0703648783718 1003.620650542804 170.4146351216282 998.9206505428042 492.6746351216282L999.9946505428042 494.5301351216282V501.6591351216283C999.9953005428042 501.9231351216283 999.8946505428042 502.1762351216282 999.8946505428042 502.4403851216283C999.8909505428041 502.5398851216282 999.8984005428042 502.6333851216282 999.8946505428042 502.7333851216283L999.7946505428044 502.5378851216283C999.8796505428043 614.3378851216282 961.5286505428044 725.0628851216283 892.0846505428043 812.5978851216282C795.3746505428043 944.5078851216282 637.7596505428043 1006.5878851216282 482.5146505428043 1001.0728851216282z" />
    <glyph glyph-name="neutral"
      unicode="&#xE93A;"
      horiz-adv-x="1000" d="M333.5342505428041 364.9641351216283H674.6542505428041V305.8691351216283H333.5342505428041zM700.6992505428041 335.0896351216283A28.454 29.5945 0 0 0 672.245250542804 305.4951351216284A28.454 29.5945 0 0 0 643.791250542804 335.0896351216283A28.454 29.5945 0 0 0 672.245250542804 364.6841351216284A28.454 29.5945 0 0 0 700.6992505428041 335.0896351216283zM359.2492505428041 335.0896351216283A28.454 29.5945 0 0 0 330.795250542804 305.4951351216284A28.454 29.5945 0 0 0 302.3412505428041 335.0896351216283A28.454 29.5945 0 0 0 330.795250542804 364.6841351216284A28.454 29.5945 0 0 0 359.249250542804 335.0896351216283zM672.2442505428041 335.0896351216283H330.7942505428041M340.8037505428041 695.5246351216283C292.8822505428041 703.0576351216283 260.9487505428041 636.7946351216283 296.6632505428041 603.8246351216284C327.3382505428042 568.5021351216284 391.9682505428041 594.8716351216284 389.4382505428041 641.6176351216283C389.9431505428041 668.7241351216284 367.7527505428042 693.3226351216284 340.8052505428041 695.5226351216284zM664.5287505428041 696.0096351216283C616.6077505428042 703.5421351216283 584.6737505428042 637.3746351216283 620.3882505428041 604.4096351216283C651.0632505428042 569.0871351216282 715.6932505428042 595.3591351216282 713.1632505428041 642.1051351216282C713.6682505428041 669.2116351216283 691.4777505428042 693.8101351216283 664.5302505428042 696.0101351216283zM484.4537505428042 945.6196351216284C623.1137505428043 950.5426351216285 763.8487505428042 896.1986351216283 848.6137505428042 780.3846351216283L849.0037505428041 779.8961351216284L849.2987505428041 779.5056351216283C911.2937505428042 701.5906351216283 945.958750542804 601.7306351216283 945.7837505428042 502.0656351216284C945.7837005428042 501.9636351216284 945.8837505428043 501.8746351216284 945.8837505428043 501.7726351216284V500.6984351216284C956.7497505428042 213.4784351216285 639.478750542804 -20.4515648783716 369.4337505428041 74.4284351216283L367.4806505428041 75.0184351216283C90.9206505428041 149.4834351216284 -38.8493494571959 522.4484351216283 131.7406505428041 753.2184351216283L132.3266005428041 754.0973351216284L132.9125505428041 754.8785851216284C209.292550542804 876.4185851216283 345.8125505428041 940.6785851216284 484.472550542804 945.6035851216282zM482.5006505428042 1001.0896351216282C327.3906505428042 995.5831351216282 174.7706505428042 922.4946351216284 87.5806505428042 784.2946351216283C-105.7143494571958 521.2346351216283 37.9041505428042 108.6446351216284 352.5206505428042 23.1446351216283C657.2806505428042 -83.0703648783718 1003.6206505428042 170.4146351216282 998.9206505428044 492.6746351216282L999.9946505428042 494.5301351216282V501.6591351216283C999.9953005428044 501.9231351216283 999.8946505428044 502.1762351216283 999.8946505428044 502.4403851216283C999.8909505428041 502.5398851216282 999.8984005428044 502.6333851216282 999.8946505428044 502.7333851216283L999.7946505428044 502.5378851216283C999.8796505428044 614.3378851216283 961.5286505428044 725.0628851216283 892.0846505428044 812.5978851216283C795.3746505428044 944.5078851216284 637.7596505428044 1006.5878851216282 482.5146505428045 1001.0728851216282z" />
    <glyph glyph-name="sad"
      unicode="&#xE93B;"
      horiz-adv-x="1000" d="M482.5006505428041 1001.0896351216282C327.3906505428042 995.5831351216282 174.7706505428041 922.4946351216282 87.5806505428042 784.2946351216283C-105.7143494571958 521.2346351216283 37.9041505428042 108.6446351216282 352.5206505428042 23.1446351216282C657.2806505428041 -83.0703648783718 1003.6206505428042 170.4146351216281 998.9206505428042 492.6746351216281L999.9946505428042 494.5301351216281V501.6591351216281C999.9953005428042 501.9231351216282 999.8946505428042 502.1762351216281 999.8946505428042 502.4403851216281C999.8909505428041 502.5398851216281 999.8984005428042 502.6333851216281 999.8946505428042 502.7333851216281L999.7946505428042 502.5378851216282C999.8791505428044 614.3378851216282 961.5286505428044 725.0628851216283 892.0846505428044 812.5978851216282C795.3746505428044 944.5078851216282 637.7596505428044 1006.5878851216282 482.5146505428043 1001.0728851216282zM484.4537505428041 945.6196351216282C623.1137505428042 950.5426351216282 763.848750542804 896.1986351216283 848.6137505428042 780.3846351216282L849.003750542804 779.8961351216283L849.2987505428041 779.5056351216283C911.293750542804 701.5906351216282 945.9587505428042 601.7306351216283 945.7837505428042 502.0656351216282C945.7837005428042 501.9636351216283 945.8837505428043 501.8746351216283 945.8837505428043 501.7726351216282V500.6984351216282C956.7497505428042 213.4784351216283 639.4787505428042 -20.4515648783719 369.4337505428042 74.4284351216284L367.4806505428041 75.0184351216284C90.9206505428041 149.4834351216284 -38.8493494571959 522.4484351216284 131.7406505428041 753.2184351216284L132.3266005428041 754.0973351216284L132.9125505428041 754.8785851216284C209.292550542804 876.4185851216284 345.8125505428041 940.6785851216284 484.4725505428041 945.6035851216284zM664.533750542804 696.0096351216283C616.6127505428042 703.5421351216282 584.6787505428042 637.3746351216283 620.393250542804 604.4096351216282C651.0682505428042 569.0871351216283 715.6982505428041 595.3591351216282 713.1682505428041 642.1051351216282C713.673250542804 669.2116351216283 691.4827505428041 693.8101351216283 664.5352505428041 696.0101351216282zM340.8037505428041 695.5211351216283C292.8822505428041 703.0541351216283 260.9487505428041 636.7911351216283 296.6632505428041 603.8211351216283C327.3382505428041 568.4986351216284 391.9682505428042 594.8681351216284 389.4382505428041 641.6141351216282C389.9431505428041 668.7206351216283 367.7527505428041 693.3191351216284 340.8052505428041 695.5191351216283zM503.0087505428041 409.1911351216283C408.1937505428042 407.8371351216283 314.3887505428042 361.3971351216283 260.6237505428042 279.7011351216283C260.0177005428042 278.7801351216283 259.2664005428042 277.9941351216283 258.6706005428042 277.0646351216283L259.1591005428042 276.7696351216282C255.6263505428041 271.2466351216283 253.8326005428042 264.6421351216283 256.3270505428042 257.0431351216282C261.6485505428041 234.4341351216283 291.4990505428042 233.3101351216283 304.0810505428041 247.9611351216282L304.2765505428042 247.8611351216282C369.0665505428041 348.9861351216283 517.6615505428042 385.1561351216282 621.4615505428042 325.2061351216282L621.7565505428042 325.1061351216282L622.0515505428041 324.9111351216283C652.5775505428041 308.2071351216282 679.4015505428042 284.6336351216283 700.1765505428041 256.6511351216283C700.6765505428041 255.9326351216283 701.2700505428043 255.3401351216283 701.8365505428042 254.6981351216283C701.9315505428042 254.5931351216283 702.0365505428042 254.5081351216283 702.1315505428042 254.4031351216282C716.7145505428043 238.4771351216283 750.9200505428043 246.4336351216283 749.8855505428044 271.9811351216282C749.8948505428043 276.9361351216283 748.3725505428042 281.8861351216283 745.6860505428042 286.0436351216282L745.8810505428044 286.1436351216282C720.1760505428042 321.6741351216282 686.6410505428041 351.1086351216283 648.2260505428042 372.1786351216283C615.6545505428041 390.9391351216283 580.2360505428042 402.3976351216284 544.0260505428043 406.9441351216283C530.4100505428041 408.6541351216283 516.7080505428041 409.3856351216283 503.0105505428043 409.1901351216283z" />
    <glyph glyph-name="attention-triangle"
      unicode="&#xE93C;"
      horiz-adv-x="1000" d="M500.1897349462161 214.89500625C529.5247349462161 214.89500625 553.5147349462161 238.64000625 553.5147349462161 268.31500625C553.5147349462161 297.34000625 529.5147349462161 321.07500625 500.1897349462161 321.07500625C470.1917349462161 321.07500625 446.2027349462162 297.33000625 446.2027349462162 268.31500625C446.2027349462162 238.64000625 470.2027349462161 214.89500625 500.1897349462161 214.89500625zM550.1897349462162 651.53350625C550.1897349462162 679.23950625 527.5247349462161 700.9975062499999 500.2047349462161 700.9975062499999C472.2027349462161 700.9975062499999 450.2137349462161 679.2285062499999 450.2137349462161 651.53350625L450.2137349462161 416.72500625C450.2137349462161 389.6800062499999 472.2137349462161 367.26500625 500.2047349462161 367.26500625C527.5347349462162 367.26500625 550.1897349462162 389.6900062499999 550.1897349462162 416.72500625L550.1897349462162 651.53350625zM643.5147349462161 867.8805062499999L977.469734946216 295.36000625C1041.4597349462163 186.5300062500001 961.469734946216 50.00000625 834.1597349462161 50.00000625L165.5692349462161 50.00000625C38.2468849462161 50.00000625 -41.0753650537839 186.5300062500001 22.2579849462161 295.36000625L356.2137349462161 867.8805062499999C420.2027349462161 977.37315625 579.5247349462161 977.37315625 643.5147349462161 867.8805062499999z" />
    <glyph glyph-name="arrow-left-bold"
      unicode="&#xE93D;"
      horiz-adv-x="1000" d="M500.0416666666666 1000.0416666666666L617.7916666666666 882.2083333333334L318.9583333333333 583.2916666666666L999.9583333333334 583.375L999.9583333333334 416.7083333333334L318.9583333333333 416.7083333333334L617.7916666666666 117.7916666666668L499.9583333333333 -0.0416666666666L57.625 442.4583333333334L0.0416666666666 500.0416666666666L100.125 600.1249999999999L117.8749999999999 617.9583333333334L499.9583333333333 1000.0416666666666L500.0416666666666 1000.0416666666666z" />
    <glyph glyph-name="chart"
      unicode="&#xE93E;"
      horiz-adv-x="1000" d="M0.0162916666667 500L200.0162916666667 500L200.0162916666667 83.3333333333334L0.0162916666667 83.3333333333334L0.0162916666667 500zM400.081375 708.3333333333334L600.0813749999999 708.3333333333334L600.0813749999999 83.3333333333334L400.081375 83.3333333333334L400.081375 708.3333333333334zM799.9837083333332 916.6666666666666L999.9837083333334 916.6666666666666L999.9837083333334 83.3333333333334L799.9837083333332 83.3333333333334L799.9837083333332 916.6666666666666z" />
    <glyph glyph-name="bookmark-filled"
      unicode="&#xE93F;"
      horiz-adv-x="1000" d="M125 0.00250625L125 1000L875 1000L875 0L500.00415875 307.51149375z" />
    <glyph glyph-name="bookmark-outlined"
      unicode="&#xE940;"
      horiz-adv-x="1000" d="M125 0L125 1000L875 1000L875 0L500.00415875 307.51149375L125 0zM813.2911375 938.22911125L186.708860625 938.22911125L186.708860625 130.45595L500.0047518750001 387.3632387500001L813.2911375 130.45595L813.2911375 938.22911125z" />
    <glyph glyph-name="expand-secondary"
      unicode="&#xE941;"
      horiz-adv-x="1000" d="M573.148015625 1000L573.148015625 907.436595625L841.6678625000001 907.436595625L550.93853 616.8505518750001L543.415961875 609.256340625L609.256340625 543.415961875L907.43659375 841.667860625L907.43659375 573.148015625L1000 573.148015625L1000 1000L573.148015625 1000zM92.4201175 158.3321374999999L92.4201175 426.8519843750001L0 426.8519843750001L0 0L426.851984375 0L426.851984375 92.4917625000001L158.332139375 92.4917625000001L448.989826875 383.149448125L456.584038125 390.743659375L390.743659375 456.584038125L92.4201175 158.3321374999999z" />
    <glyph glyph-name="timer"
      unicode="&#xE942;"
      horiz-adv-x="1000" d="M474.1066618750006 999.999999999997C461.0980812500006 999.999999999997 450.5805062500006 989.467857312503 450.5805062500006 976.473844437503L450.5805062500006 976.473844437503L450.5805062500006 784.695616875003C450.5805062500006 771.7161712500031 461.0980812500006 761.1840281250029 474.1066618750006 761.1840281250029L474.1066618750006 761.1840281250029L528.2241031250006 761.1840281250029C541.2181156250006 761.1840281250029 551.7502587500006 771.7161712500031 551.7502587500006 784.695616875003L551.7502587500006 784.695616875003L551.7502587500006 894.1395837500031C748.9620812500006 869.054729375003 899.9956312500007 700.030591250003 899.9956312500007 498.827333750003L899.9956312500007 498.827333750003C899.9956312500007 278.905125000003 721.0803125000006 99.9898000000031 501.1726662500006 99.9898000000031L501.1726662500006 99.9898000000031C281.2650225000006 99.9898000000031 102.3497018750006 278.905125000003 102.3497018750006 498.827333750003L102.3497018750006 498.827333750003C102.3497018750006 605.5763543750029 143.7644762500006 705.7700993750029 218.9753375000005 780.9955281250029L218.9753375000005 780.9955281250029C228.1818581250006 790.187480625003 228.1818581250006 805.089807500003 218.9753375000005 814.281760000003L218.9753375000005 814.281760000003L180.1535393750006 853.0889912500031C175.5648462500005 857.692251875003 169.5339925000006 860.008448750003 163.5177062500006 860.008448750003L163.5177062500006 860.008448750003C157.5596893750006 860.008448750003 151.5725375000005 857.7359537500031 146.9984118750006 853.220096875003L146.9984118750006 853.220096875003C52.1945605625005 759.6981662500029 -5e-13 634.2593268750029 -5e-13 499.992716250003L-5e-13 499.992716250003C-5e-13 224.3069625000031 224.2923943750006 3e-12 499.9927162500006 3e-12L499.9927162500006 3e-12C775.7076062500006 3e-12 1000.0000000000006 224.3069625000031 1000.0000000000006 499.992716250003L1000.0000000000006 499.992716250003C1000.0000000000006 762.247440000003 797.2380437500005 979.722347687503 537.0081725000006 998.310195637503L537.0081725000006 998.310195637503C534.2986581250005 999.402741561878 531.3415006250005 999.999999999997 528.2241031250006 999.999999999997L528.2241031250006 999.999999999997L474.1066618750006 999.999999999997zM271.5923493750006 728.407650625003C263.9445275000006 720.7598293750029 262.5023668750006 708.8874968750031 268.0670675000005 699.637275000003L268.0670675000005 699.637275000003C287.3832793750006 667.516424375003 304.8640143750006 638.1779250000029 320.6403775000006 611.680044375003L320.6403775000006 611.680044375003C377.6130056250006 516.016723125003 412.0063512500006 458.2428950000031 435.1246231250006 435.124623125003L435.1246231250006 435.124623125003C452.6490593750005 417.5856193750031 475.6944950000006 407.9275131250031 499.9927162500006 407.9275131250031L499.9927162500006 407.9275131250031C524.2909375000006 407.9275131250031 547.3218056250006 417.5856193750031 564.4674931250006 434.760441250003L564.4674931250006 434.760441250003C581.9919300000006 451.498244375003 591.7811412500006 474.150363750003 592.0579193750006 498.5359887500031L592.0579193750006 498.5359887500031C592.3346975000006 523.518871875003 582.6620243750006 547.0595950000029 564.4966275000005 565.239558750003L564.4966275000005 565.239558750003C540.5043193750006 588.1684562500029 478.0398268750006 625.5480937500029 374.5684443750005 687.444462500003L374.5684443750005 687.444462500003C351.7560856250006 701.079435625003 327.0208456250006 715.894358125003 300.3481581250006 731.9329325000031L300.3481581250006 731.9329325000031C296.5898000000006 734.1908606250029 292.4089906250006 735.283406250003 288.2281818750006 735.283406250003L288.2281818750006 735.283406250003C282.1390593750006 735.283406250003 276.1227731250006 732.938074375003 271.5923493750006 728.407650625003L271.5923493750006 728.407650625003z" />
    <glyph glyph-name="video-play"
      unicode="&#xE943;"
      horiz-adv-x="1000" d="M119.2253664062499 991.1802589358958L954.46406328125 573.6747561233958C1015.17864453125 543.2706617483958 1015.17864453125 456.5749279983957 954.46406328125 426.2809929983957L119.2253664062499 8.7754879983958C64.4610351562499 -18.5441307516043 7.812499e-7 21.2235442483958 7.812499e-7 82.4723692483958L7.812499e-7 917.4833773733958C7.812499e-7 978.7322056858958 64.4610351562499 1018.6100399358958 119.2253664062499 991.1802589358958" />
    <glyph glyph-name="audio"
      unicode="&#xE944;"
      horiz-adv-x="1000" d="M500.0041093750016 944.4444437499998C530.6677625000016 944.4444437499998 555.5619475000016 926.341349375 555.5619475000016 904.0411456249998L555.5619475000016 95.9588499999999C555.5619475000016 73.61781875 530.6677625000016 55.5555562500001 500.0041093750016 55.5555562500001C469.3404562500016 55.5555562500001 444.4462706250016 73.61781875 444.4462706250016 95.9588499999999L444.4462706250016 904.0411456249998C444.4462706250016 926.341349375 469.3404562500016 944.4444437499998 500.0041093750016 944.4444437499998zM277.7809737500017 823.22638375C308.4446268750017 823.22638375 333.3388125000017 805.123289375 333.3388125000017 782.8312512499999L333.3388125000017 217.16875C333.3388125000017 194.81955 308.4446268750017 176.7654499999999 277.7809737500017 176.7654499999999C247.1091018750017 176.7654499999999 222.2231356250017 194.81955 222.2231356250017 217.16875L222.2231356250017 782.8312512499999C222.2231356250017 805.123289375 247.1091018750017 823.22638375 277.7809737500017 823.22638375zM722.2272437500017 782.8312512499999C752.9402125000016 782.8312512499999 777.7850812500016 764.728156875 777.7850812500016 742.4279531249999L777.7850812500016 257.5720437499999C777.7850812500016 235.2310125 752.9402125000016 217.16875 722.2272437500017 217.16875C691.5060625000016 217.16875 666.6694062500017 235.2310125 666.6694062500017 257.5720437499999L666.6694062500017 742.4279531249999C666.6694062500017 764.728156875 691.5060625000016 782.8312512499999 722.2272437500017 782.8312512499999zM55.5578385000016 661.613191875C86.2214918750017 661.613191875 111.1156768750017 643.510096875 111.1156768750017 621.20989375L111.1156768750017 378.79010625C111.1156768750017 356.4817375 86.2214918750017 338.37864375 55.5578385000016 338.37864375C24.8859666875016 338.37864375 -1.6e-12 356.4817375 -1.6e-12 378.79010625L-1.6e-12 621.20989375C-1.6e-12 643.510096875 24.8859666875016 661.613191875 55.5578385000016 661.613191875zM944.4421625000016 621.20989375C975.1633437500016 621.20989375 1000.0000000000016 603.1067987499998 1000.0000000000016 580.806595625L1000.0000000000016 419.1934031249999C1000.0000000000016 396.88503375 975.1633437500016 378.79010625 944.4421625000016 378.79010625C913.7291937500016 378.79010625 888.8925437500017 396.88503375 888.8925437500017 419.1934031249999L888.8925437500017 580.806595625C888.8925437500017 603.1067987499998 913.7291937500016 621.20989375 944.4421625000016 621.20989375z" />
    <glyph glyph-name="chevron-up-down"
      unicode="&#xE945;"
      horiz-adv-x="888.8888888888889" d="M444.4444444444444 804.0494444444445L216.3277777777777 548.6111111111111L166.6666666666666 604.2222222222222L444.4444444444444 915.2777777777778L722.2222222222222 604.2222222222222L672.5611111111111 548.6111111111111zM444.4444444444444 185.8388888888889L216.3277777777778 418.0555555555556L166.6666666666667 367.5L444.4444444444444 84.7222222222222L722.2222222222222 367.5L672.5611111111111 418.0555555555556z" />
    <glyph glyph-name="download"
      unicode="&#xE946;"
      horiz-adv-x="1000" d="M875 500H718.75L500 281.25L281.25 500H125L0 250V187.5H1000V250L875 500zM0 125H1000V62.5H0V125zM562.5 687.5V937.5H437.5V687.5H218.75L500 406.25L781.25 687.5H562.5z" />
    <glyph glyph-name="podcast-pause"
      unicode="&#xE947;"
      horiz-adv-x="1000" d="M500.0000078125 987.5488203125C231.1313328125 987.5488203125 12.4511796875 768.8686671875 12.4511796875 499.9999921875C12.4511796875 231.1313046875001 231.1313328125 12.4511796875 500.0000078125 12.4511796875C768.8686953125 12.4511796875 987.5488203125 231.1313046875 987.5488203125 499.9999921875C987.5488203125 768.8686671875 768.8686953125 987.5488203125 500.0000078125 987.5488203125zM500.0000078125 925.0488171875C735.0911953125001 925.0488234375 925.0488203125 735.0911609375 925.0488203125 499.9999921875C925.0488203125 264.9088046875 735.0911953125001 74.9511796875 500.0000078125 74.9511796875C264.9088390625 74.9511796875 74.9511828125 264.9088046875 74.9511828125 499.9999921875C74.9511765625 735.0911609375 264.9088390625 925.0488171875 500.0000078125 925.0488171875zM362.5000078125 712.4999921875001H362.5000078125A37.5 37.5 0 0 0 400.0000078124999 674.9999921875001V328.1249921875001A37.5 37.5 0 0 0 362.5000078125 290.6249921875001H362.5000078125A37.5 37.5 0 0 0 325.0000078125 328.1249921875001V674.9999921875001A37.5 37.5 0 0 0 362.5000078125 712.4999921875001zM631.2500078124999 712.4999921875001H631.2500078124999A37.5 37.5 0 0 0 668.7500078124999 674.9999921875001V328.1249921875001A37.5 37.5 0 0 0 631.2500078124999 290.6249921875001H631.2500078124999A37.5 37.5 0 0 0 593.7500078124999 328.1249921875001V674.9999921875001A37.5 37.5 0 0 0 631.2500078124999 712.4999921875001z" />
    <glyph glyph-name="podcast-play"
      unicode="&#xE948;"
      horiz-adv-x="1000" d="M500.0000078125 987.5488203125C231.1313328125 987.5488203125 12.4511796875 768.8686671875 12.4511796875 499.9999921875C12.4511796875 231.1313046875001 231.1313328125 12.4511796875 500.0000078125 12.4511796875C768.8686953125 12.4511796875 987.5488203125 231.1313046875 987.5488203125 499.9999921875C987.5488203125 768.8686671875 768.8686953125 987.5488203125 500.0000078125 987.5488203125zM500.0000078125 925.0488171875C735.0911953125001 925.0488234375 925.0488203125 735.0911609375 925.0488203125 499.9999921875C925.0488203125 264.9088046875 735.0911953125001 74.9511796875 500.0000078125 74.9511796875C264.9088390625 74.9511796875 74.9511828125 264.9088046875 74.9511828125 499.9999921875C74.9511765625 735.0911609375 264.9088390625 925.0488171875 500.0000078125 925.0488171875zM702.5000078124999 499.9999921875L341.2500078125 299.3749921875001L341.2500078125 701.2499921875001L702.5000078124999 499.9999921875z" />
    <glyph glyph-name="podcast-mute"
      unicode="&#xE949;"
      horiz-adv-x="1000" d="M540.0216100886478 936.8437766636052A31.30234125 31.30234125 0 0 1 518.9034475886477 927.6885029136052L281.9649663386478 691.116240413605H61.9942663386477A31.30234125 31.30234125 0 0 1 30.7442663386477 659.866240413605V343.5820654136051A31.30234125 31.30234125 0 0 1 61.9942663386477 312.3320654136051H278.4249288386477L518.9034475886477 72.2197529136051A31.30234125 31.30234125 0 0 1 572.2481725886478 94.3145029136052V905.593777913605A31.30234125 31.30234125 0 0 1 540.0216100886478 936.8437766636052zM509.7481725886477 830.2763904136051V169.631877913605L313.4591100886477 365.6768154136051A31.30234125 31.30234125 0 0 1 291.3643850886478 374.8320591636052H93.2442663386477V628.616240413605H294.9044225886477A31.30234125 31.30234125 0 0 1 316.9991475886477 637.7715091636051zM539.1666725886478 905.593777913605L293.0729225886477 659.866240413605H60.1627644636477V343.5820654136051H289.5328850886477L539.1666725886478 94.3145029136051zM647.3725163386478 658.3276841636051C630.6162475886476 641.5714029136052 630.6162288386477 613.2811904136051 647.3725163386478 596.5249279136051L894.8426413386476 349.0548154136052C911.5988913386478 332.2985029136051 939.9754538386478 332.2121904136052 956.7317663386478 348.9673154136051C973.4880163386476 365.7236279136051 973.4017038386478 394.1001904136051 956.6442663386476 410.8564529136051L709.1752663386478 658.3277154136051C692.4190163386477 675.0839841636052 664.1288288386477 675.0839654136051 647.3725163386478 658.3276841636052zM950.5168913386478 658.3277029136052C933.7606413386478 675.0839654136051 905.2977663386478 675.0839966636051 888.5415163386476 658.3277091636052L641.0713913386478 410.8576029136052C624.3150913386478 394.1013154136051 624.4014350886478 365.7247529136051 641.1588913386477 348.9685029136051C657.9152038386476 332.2121904136052 686.2053913386476 332.2121904136052 702.9617038386477 348.9685029136051L950.4317663386478 596.4385904136052C967.1880788386476 613.1948716636051 967.2743913386478 641.5713904136051 950.5192663386476 658.3277029136052z" />
    <glyph glyph-name="podcast-speaker1"
      unicode="&#xE94A;"
      horiz-adv-x="1000" d="M622.1656171875001 936.8437766636052A31.30234125 31.30234125 0 0 1 601.0474546875 927.6885029136052L364.1089734375001 691.116240413605H144.1382734375001A31.30234125 31.30234125 0 0 1 112.8882734375001 659.866240413605V343.5820654136051A31.30234125 31.30234125 0 0 1 144.1382734375001 312.3320654136051H360.5689359375001L601.0474546875 72.2197529136051A31.30234125 31.30234125 0 0 1 654.3921796875001 94.3145029136052V905.593777913605A31.30234125 31.30234125 0 0 1 622.1656171875001 936.8437766636052zM591.8921796875001 830.2763904136051V169.631877913605L395.6031171875001 365.6768154136051A31.30234125 31.30234125 0 0 1 373.5083921875001 374.8320591636052H175.3882734375001V628.616240413605H377.0484296875001A31.30234125 31.30234125 0 0 1 399.1431546875001 637.7715091636051zM621.3106796875 905.593777913605L375.2169296875001 659.866240413605H142.3067715625001V343.5820654136051H371.6768921875L621.3106796875 94.3145029136051zM797.2144609375 683.9140904136052A31.253125 31.253125 0 0 1 774.1431484374999 632.1562779136052C843.9393984375 549.7512779136051 843.9393984375 450.0349091636052 774.1431484374999 367.6299091636051A31.2677625 31.2677625 0 1 1 821.8726484375 327.2246279136051C908.8580859375 429.9241029136051 908.8580859375 569.8620841636052 821.8726484375 672.5615529136052A31.253125 31.253125 0 0 1 797.2144609375 683.9140904136052z" />
    <glyph glyph-name="podcast-speaker2"
      unicode="&#xE94B;"
      horiz-adv-x="1000" d="M532.632953125 936.8437766636052A31.30234125 31.30234125 0 0 1 511.514790625 927.6885029136052L274.576309375 691.116240413605H54.605609375A31.30234125 31.30234125 0 0 1 23.355609375 659.866240413605V343.5820654136051A31.30234125 31.30234125 0 0 1 54.605609375 312.3320654136051H271.036271875L511.514790625 72.2197529136051A31.30234125 31.30234125 0 0 1 564.859515625 94.3145029136052V905.593777913605A31.30234125 31.30234125 0 0 1 532.632953125 936.8437766636052zM502.359515625 830.2763904136051V169.631877913605L306.070453125 365.6768154136051A31.30234125 31.30234125 0 0 1 283.975728125 374.8320591636052H85.855609375V628.616240413605H287.515765625A31.30234125 31.30234125 0 0 1 309.610490625 637.7715091636051zM531.778015625 905.593777913605L285.684265625 659.866240413605H52.7741075V343.5820654136051H282.144228125L531.778015625 94.3145029136051zM836.343921875 784.9883091636051A31.253125 31.253125 0 0 1 816.4464218749999 731.8877216636051C950.107046875 591.3682904136051 950.107046875 408.2958216636051 816.4464218749999 267.7763779136052A31.25632875 31.25632875 0 1 1 861.734546875 224.6855654136051C1014.947671875 385.7608216636051 1014.947671875 613.9032904136052 861.734546875 774.9785404136051A31.253125 31.253125 0 0 1 836.343921875 784.9883091636051zM707.681796875 683.9140904136052A31.253125 31.253125 0 0 1 684.6104843749999 632.1562779136052C754.406734375 549.7512779136051 754.406734375 450.0349091636052 684.6104843749999 367.6299091636051A31.2677625 31.2677625 0 1 1 732.339984375 327.2246279136051C819.325421875 429.9241029136051 819.325421875 569.8620841636052 732.339984375 672.5615529136052A31.253125 31.253125 0 0 1 707.6817968749999 683.9140904136052z" />
    <glyph glyph-name="pencil"
      unicode="&#xE94C;"
      horiz-adv-x="1000" d="M823.7083333333333 586.5416666666666L296.9583333333333 59.9166666666667L0 1e-13L59.9166666666667 297.0000000000001L586.6249999999999 823.6666666666667L823.7083333333333 586.5416666666669zM882.6249999999999 645.4583333333331L1000 762.9583333333333L762.875 999.9999999999998L645.5416666666667 882.6249999999999L882.6250000000001 645.4583333333331z" />
    <glyph glyph-name="mobile"
      unicode="&#xE94D;"
      horiz-adv-x="600" d="M107.8125266666667 1000L492.1874600000001 1000C521.6145933333335 1000 548.1770600000001 988.2812666666666 567.4479266666667 969.5312666666666C586.7187266666667 950.7812666666666 598.6979266666667 925 598.6979266666667 896.3541333333335L598.6979266666667 103.6458666666667C598.6979266666667 74.9999999999999 586.7187266666667 49.2187333333333 567.4479266666667 30.4687333333333C548.1770600000001 11.7187333333333 521.6145933333335 -1e-13 492.1874600000001 -1e-13L107.8125266666667 -1e-13C78.3853933333333 -1e-13 51.8229266666667 11.7187333333333 32.55206 30.4687333333333C13.28126 49.2187333333333 1.3020733333333 74.9999999999999 1.3020733333333 103.6458666666667L1.3020733333333 896.3541333333335C1.3020733333333 925 13.28126 950.7812666666666 32.55206 969.5312666666666C51.8229266666667 988.2812666666666 78.3853933333333 1000 107.8125266666667 1000zM299.9999933333334 127.8646C323.9583266666667 127.8646 343.4895933333334 108.8541333333333 343.4895933333334 85.4166666666667C343.4895933333334 61.9792000000001 323.9583266666667 42.7083333333333 299.9999933333334 42.7083333333333C276.0416600000001 42.7083333333333 256.5103933333334 61.9792000000001 256.5103933333334 85.4166666666667C256.5103933333334 108.8541333333333 276.0416600000001 127.8646 299.9999933333334 127.8646zM32.03126 160.4166666666667L568.2291933333335 160.4166666666667L568.2291933333335 839.5833333333335L32.03126 839.5833333333335zM32.03126 160.4166666666667" />
    </font>
</defs>
</svg>
