<?xml version="1.0" encoding="utf-8" ?>
<svg xmlns="http://www.w3.org/2000/svg" xmlns:xlink="http://www.w3.org/1999/xlink" width="40" height="40">
	<defs>
		<clipPath id="clip_0">
			<rect x="-370" y="-855" width="1440" height="4355" clip-rule="evenodd"/>
		</clipPath>
	</defs>
	<g clip-path="url(#clip_0)">
		<path fill="rgb(0,0,0)" stroke="none" transform="translate(21 20)" d="M0.025 0.0385L0.025 0C0.017 0.013 0.0085 0.026 0 0.0385L0.025 0.0385L0.025 0.0385Z"/>
	</g>
	<defs>
		<clipPath id="clip_1">
			<rect x="-370" y="-855" width="1440" height="4355" clip-rule="evenodd"/>
		</clipPath>
	</defs>
	<g clip-path="url(#clip_1)">
		<path fill="rgb(17,43,74)" stroke="none" transform="translate(13 13)" d="M1.0953 0L13.7313 0C14.3367 0 14.8275 0.4785 14.8275 1.0689L14.8275 13.8528C14.8275 14.4423 14.337 14.9214 13.7313 14.9214L1.0953 14.9214C0.4905 14.9214 0 14.4426 0 13.8528L0 1.0689C0 0.4788 0.4905 0 1.0953 0ZM3.2522 4.328L3.2372 4.328C2.486 4.328 2 3.8105 2 3.164C2 2.5031 2.501 2 3.2669 2C4.0331 2 4.5044 2.5031 4.5194 3.164C4.5194 3.8105 4.0328 4.328 3.2522 4.328ZM10.5966 11.897L12.8364 11.897L12.8364 8.033C12.8364 5.9633 11.7315 5 10.2582 5C9.0693 5 8.5371 5.6537 8.2395 6.1127L8.2395 5.159L6 5.159C6.0294 5.7905 6 11.8967 6 11.8967L8.2395 11.8967L8.2395 8.1338C8.2395 7.9322 8.2539 7.7312 8.313 7.5875C8.4753 7.1849 8.8437 6.7682 9.4623 6.7682C10.2726 6.7682 10.5966 7.3862 10.5966 8.2916L10.5966 11.897ZM2 11.8877L4.2395 11.8877L4.2395 5.15L2 5.15L2 11.8877Z" fill-rule="evenodd"/>
	</g>
	<defs>
		<clipPath id="clip_2">
			<path d="M40 20C40 31.0457 31.0457 40 20 40C8.9543 40 0 31.0457 0 20C0 8.9543 8.9543 0 20 0C31.0457 0 40 8.9543 40 20Z" clip-rule="evenodd"/>
		</clipPath>
	</defs>
	<g clip-path="url(#clip_2)">
		<path fill="none" stroke="rgb(17,43,74)" stroke-width="2" stroke-miterlimit="4" d="M20 40C31.0457 40 40 31.0457 40 20C40 8.9543 31.0457 0 20 0C8.9543 0 0 8.9543 0 20C0 31.0457 8.9543 40 20 40Z"/>
	</g>

</svg>