<?xml version="1.0" encoding="utf-8" ?>
<svg xmlns="http://www.w3.org/2000/svg" xmlns:xlink="http://www.w3.org/1999/xlink" width="40" height="40">
	<defs>
		<clipPath id="clip_0">
			<rect x="-470" y="-855" width="1440" height="4355" clip-rule="evenodd"/>
		</clipPath>
	</defs>
	<g clip-path="url(#clip_0)">
		<path fill="rgb(17,43,74)" stroke="none" transform="translate(13 13)" d="M0.00576199 2.67192L0.00576199 0C3.86383 0.00164628 7.35889 1.57138 9.89417 4.10748C12.4294 6.6444 13.9984 10.1411 14 14L11.3207 14C11.3149 7.75564 6.24436 2.67603 0.00576199 2.67192ZM0.00164628 7.4338L0.00164628 4.76105C2.54762 4.76188 4.85407 5.79821 6.52752 7.47248C8.20096 9.14676 9.23648 11.4532 9.23895 14L6.55303 14L6.55303 13.9951C6.54974 12.2442 5.86818 10.5914 4.63182 9.35748C3.39793 8.1203 1.74588 7.43462 0.00164628 7.4338ZM3.71978 12.1323C3.71896 11.6203 3.51235 11.161 3.17239 10.8218C2.8349 10.4852 2.3723 10.2769 1.85865 10.2769C1.34419 10.2769 0.883231 10.4852 0.54492 10.8218C0.208255 11.1602 0 11.6203 0 12.1323C0 12.6435 0.208255 13.1028 0.54492 13.4394L0.544097 13.4394L0.54492 13.4403L0.54492 13.4394C0.883231 13.7761 1.34419 13.9835 1.85865 13.9835C2.3723 13.9835 2.8349 13.7769 3.17239 13.4403L3.17404 13.4394C3.51235 13.1028 3.71896 12.6426 3.71978 12.1323Z" fill-rule="evenodd"/>
	</g>
	<defs>
		<clipPath id="clip_1">
			<path d="M40 20C40 31.0457 31.0457 40 20 40C8.9543 40 0 31.0457 0 20C0 8.9543 8.9543 0 20 0C31.0457 0 40 8.9543 40 20Z" clip-rule="evenodd"/>
		</clipPath>
	</defs>
	<g clip-path="url(#clip_1)">
		<path fill="none" stroke="rgb(17,43,74)" stroke-width="2" stroke-miterlimit="4" d="M20 40C31.0457 40 40 31.0457 40 20C40 8.9543 31.0457 0 20 0C8.9543 0 0 8.9543 0 20C0 31.0457 8.9543 40 20 40Z"/>
	</g>

</svg>