<?xml version="1.0" encoding="utf-8" ?>
<svg xmlns="http://www.w3.org/2000/svg" xmlns:xlink="http://www.w3.org/1999/xlink" width="40" height="40">
	<defs>
		<clipPath id="clip_0">
			<path d="M40 20C40 31.0457 31.0457 40 20 40C8.9543 40 0 31.0457 0 20C0 8.9543 8.9543 0 20 0C31.0457 0 40 8.9543 40 20Z" clip-rule="evenodd"/>
		</clipPath>
	</defs>
	<g clip-path="url(#clip_0)">
		<path fill="none" stroke="rgb(17,43,74)" stroke-width="2" stroke-miterlimit="4" d="M20 40C31.0457 40 40 31.0457 40 20C40 8.9543 31.0457 0 20 0C8.9543 0 0 8.9543 0 20C0 31.0457 8.9543 40 20 40Z"/>
	</g>
	<defs>
		<clipPath id="clip_1">
			<rect x="-220" y="-855" width="1440" height="4355" clip-rule="evenodd"/>
		</clipPath>
	</defs>
	<g clip-path="url(#clip_1)">
		<path fill="rgb(17,43,74)" stroke="none" transform="translate(10 13)" d="M17.8139 0.417832C18.6744 0.64782 19.352 1.3256 19.582 2.18596C20 3.74583 20 6.99992 20 6.99992C20 6.99992 20 10.2542 19.582 11.8139C19.352 12.6742 18.6744 13.3522 17.8139 13.582C16.2542 14 9.99992 14 9.99992 14C9.99992 14 3.74581 14 2.18611 13.582C1.3256 13.3522 0.647981 12.6742 0.417994 11.8139C0 10.2542 0 6.99992 0 6.99992C0 6.99992 0 3.74583 0.417994 2.18596C0.647981 1.3256 1.3256 0.64782 2.18611 0.417832C3.74581 0 9.99992 0 9.99992 0C9.99992 0 16.2542 0 17.8139 0.417832ZM7.81509 3.90757L13.011 6.90779L7.81509 9.90769L7.81509 3.90757Z" fill-rule="evenodd"/>
	</g>

</svg>